<?xml version="1.0" encoding="utf-8" standalone="no"?>
<!DOCTYPE svg PUBLIC "-//W3C//DTD SVG 1.1//EN"
  "http://www.w3.org/Graphics/SVG/1.1/DTD/svg11.dtd">
<!-- Created with matplotlib (https://matplotlib.org/) -->
<svg height="504pt" version="1.1" viewBox="0 0 504 504" width="504pt" xmlns="http://www.w3.org/2000/svg" xmlns:xlink="http://www.w3.org/1999/xlink">
 <defs>
  <style type="text/css">
*{stroke-linecap:butt;stroke-linejoin:round;}
  </style>
 </defs>
 <g id="figure_1">
  <g id="patch_1">
   <path d="M 0 504 
L 504 504 
L 504 0 
L 0 0 
z
" style="fill:#ffffff;"/>
  </g>
  <g id="patch_2">
   <path d="M 63 441 
L 453.6 441 
L 453.6 60.48 
L 63 60.48 
z
" style="fill:#ffffff;"/>
  </g>
  <g id="pane3d_1">
   <g id="patch_3">
    <path d="M 114.780066 356.91849 
L 226.571829 263.623608 
L 224.710615 85.352401 
L 106.685728 169.175934 
" style="fill:#f2f2f2;opacity:0.5;stroke:#f2f2f2;stroke-linejoin:miter;"/>
   </g>
  </g>
  <g id="pane3d_2">
   <g id="patch_4">
    <path d="M 226.571829 263.623608 
L 407.663976 315.781468 
L 415.240655 132.134565 
L 224.710615 85.352401 
" style="fill:#e6e6e6;opacity:0.5;stroke:#e6e6e6;stroke-linejoin:miter;"/>
   </g>
  </g>
  <g id="pane3d_3">
   <g id="patch_5">
    <path d="M 114.780066 356.91849 
L 305.313474 417.664816 
L 407.663976 315.781468 
L 226.571829 263.623608 
" style="fill:#ececec;opacity:0.5;stroke:#ececec;stroke-linejoin:miter;"/>
   </g>
  </g>
  <g id="axis3d_1">
   <g id="line2d_1">
    <path d="M 114.780066 356.91849 
L 305.313474 417.664816 
" style="fill:none;stroke:#000000;stroke-linecap:square;stroke-width:0.8;"/>
   </g>
   <g id="Line3DCollection_1">
    <path d="M 126.396213 360.621979 
L 237.647197 266.813517 
L 236.339385 88.207694 
" style="fill:none;stroke:#b0b0b0;stroke-width:0.8;"/>
    <path d="M 146.464483 367.020193 
L 256.770524 272.321386 
L 256.425533 93.139585 
" style="fill:none;stroke:#b0b0b0;stroke-width:0.8;"/>
    <path d="M 166.730878 373.481575 
L 276.068925 277.87968 
L 276.704934 98.118927 
" style="fill:none;stroke:#b0b0b0;stroke-width:0.8;"/>
    <path d="M 187.198348 380.007064 
L 295.544818 283.489094 
L 297.180392 103.146409 
" style="fill:none;stroke:#b0b0b0;stroke-width:0.8;"/>
    <path d="M 207.869899 386.597618 
L 315.200661 289.150337 
L 317.854763 108.222731 
" style="fill:none;stroke:#b0b0b0;stroke-width:0.8;"/>
    <path d="M 228.7486 393.254217 
L 335.03896 294.864131 
L 338.730959 113.348608 
" style="fill:none;stroke:#b0b0b0;stroke-width:0.8;"/>
    <path d="M 249.83758 399.977857 
L 355.062268 300.631211 
L 359.811951 118.52477 
" style="fill:none;stroke:#b0b0b0;stroke-width:0.8;"/>
    <path d="M 271.140032 406.769556 
L 375.273184 306.452326 
L 381.100767 123.751961 
" style="fill:none;stroke:#b0b0b0;stroke-width:0.8;"/>
    <path d="M 292.659212 413.630354 
L 395.674358 312.328238 
L 402.600496 129.030939 
" style="fill:none;stroke:#b0b0b0;stroke-width:0.8;"/>
   </g>
   <g id="xtick_1">
    <g id="line2d_2">
     <path d="M 127.354697 359.813771 
L 124.475669 362.24141 
" style="fill:none;stroke:#000000;stroke-linecap:square;stroke-width:0.8;"/>
    </g>
    <g id="text_1">
     <!-- 0 -->
     <defs>
      <path d="M 31.78125 66.40625 
Q 24.171875 66.40625 20.328125 58.90625 
Q 16.5 51.421875 16.5 36.375 
Q 16.5 21.390625 20.328125 13.890625 
Q 24.171875 6.390625 31.78125 6.390625 
Q 39.453125 6.390625 43.28125 13.890625 
Q 47.125 21.390625 47.125 36.375 
Q 47.125 51.421875 43.28125 58.90625 
Q 39.453125 66.40625 31.78125 66.40625 
z
M 31.78125 74.21875 
Q 44.046875 74.21875 50.515625 64.515625 
Q 56.984375 54.828125 56.984375 36.375 
Q 56.984375 17.96875 50.515625 8.265625 
Q 44.046875 -1.421875 31.78125 -1.421875 
Q 19.53125 -1.421875 13.0625 8.265625 
Q 6.59375 17.96875 6.59375 36.375 
Q 6.59375 54.828125 13.0625 64.515625 
Q 19.53125 74.21875 31.78125 74.21875 
z
" id="DejaVuSans-48"/>
     </defs>
     <g transform="translate(116.746348 384.248179)scale(0.1 -0.1)">
      <use xlink:href="#DejaVuSans-48"/>
     </g>
    </g>
   </g>
   <g id="xtick_2">
    <g id="line2d_3">
     <path d="M 147.415159 366.204028 
L 144.559566 368.655583 
" style="fill:none;stroke:#000000;stroke-linecap:square;stroke-width:0.8;"/>
    </g>
    <g id="text_2">
     <!-- 5 -->
     <defs>
      <path d="M 10.796875 72.90625 
L 49.515625 72.90625 
L 49.515625 64.59375 
L 19.828125 64.59375 
L 19.828125 46.734375 
Q 21.96875 47.46875 24.109375 47.828125 
Q 26.265625 48.1875 28.421875 48.1875 
Q 40.625 48.1875 47.75 41.5 
Q 54.890625 34.8125 54.890625 23.390625 
Q 54.890625 11.625 47.5625 5.09375 
Q 40.234375 -1.421875 26.90625 -1.421875 
Q 22.3125 -1.421875 17.546875 -0.640625 
Q 12.796875 0.140625 7.71875 1.703125 
L 7.71875 11.625 
Q 12.109375 9.234375 16.796875 8.0625 
Q 21.484375 6.890625 26.703125 6.890625 
Q 35.15625 6.890625 40.078125 11.328125 
Q 45.015625 15.765625 45.015625 23.390625 
Q 45.015625 31 40.078125 35.4375 
Q 35.15625 39.890625 26.703125 39.890625 
Q 22.75 39.890625 18.8125 39.015625 
Q 14.890625 38.140625 10.796875 36.28125 
z
" id="DejaVuSans-53"/>
     </defs>
     <g transform="translate(136.812718 390.734779)scale(0.1 -0.1)">
      <use xlink:href="#DejaVuSans-53"/>
     </g>
    </g>
   </g>
   <g id="xtick_3">
    <g id="line2d_4">
     <path d="M 167.673546 372.657335 
L 164.841992 375.13316 
" style="fill:none;stroke:#000000;stroke-linecap:square;stroke-width:0.8;"/>
    </g>
    <g id="text_3">
     <!-- 10 -->
     <defs>
      <path d="M 12.40625 8.296875 
L 28.515625 8.296875 
L 28.515625 63.921875 
L 10.984375 60.40625 
L 10.984375 69.390625 
L 28.421875 72.90625 
L 38.28125 72.90625 
L 38.28125 8.296875 
L 54.390625 8.296875 
L 54.390625 0 
L 12.40625 0 
z
" id="DejaVuSans-49"/>
     </defs>
     <g transform="translate(153.896241 397.285515)scale(0.1 -0.1)">
      <use xlink:href="#DejaVuSans-49"/>
      <use x="63.623047" xlink:href="#DejaVuSans-48"/>
     </g>
    </g>
   </g>
   <g id="xtick_4">
    <g id="line2d_5">
     <path d="M 188.1328 379.174628 
L 185.325906 381.675086 
" style="fill:none;stroke:#000000;stroke-linecap:square;stroke-width:0.8;"/>
    </g>
    <g id="text_4">
     <!-- 15 -->
     <g transform="translate(174.362375 403.901343)scale(0.1 -0.1)">
      <use xlink:href="#DejaVuSans-49"/>
      <use x="63.623047" xlink:href="#DejaVuSans-53"/>
     </g>
    </g>
   </g>
   <g id="xtick_5">
    <g id="line2d_6">
     <path d="M 208.795926 385.756864 
L 206.014324 388.282324 
" style="fill:none;stroke:#000000;stroke-linecap:square;stroke-width:0.8;"/>
    </g>
    <g id="text_5">
     <!-- 20 -->
     <defs>
      <path d="M 19.1875 8.296875 
L 53.609375 8.296875 
L 53.609375 0 
L 7.328125 0 
L 7.328125 8.296875 
Q 12.9375 14.109375 22.625 23.890625 
Q 32.328125 33.6875 34.8125 36.53125 
Q 39.546875 41.84375 41.421875 45.53125 
Q 43.3125 49.21875 43.3125 52.78125 
Q 43.3125 58.59375 39.234375 62.25 
Q 35.15625 65.921875 28.609375 65.921875 
Q 23.96875 65.921875 18.8125 64.3125 
Q 13.671875 62.703125 7.8125 59.421875 
L 7.8125 69.390625 
Q 13.765625 71.78125 18.9375 73 
Q 24.125 74.21875 28.421875 74.21875 
Q 39.75 74.21875 46.484375 68.546875 
Q 53.21875 62.890625 53.21875 53.421875 
Q 53.21875 48.921875 51.53125 44.890625 
Q 49.859375 40.875 45.40625 35.40625 
Q 44.1875 33.984375 37.640625 27.21875 
Q 31.109375 20.453125 19.1875 8.296875 
z
" id="DejaVuSans-50"/>
     </defs>
     <g transform="translate(195.032886 410.583237)scale(0.1 -0.1)">
      <use xlink:href="#DejaVuSans-50"/>
      <use x="63.623047" xlink:href="#DejaVuSans-48"/>
     </g>
    </g>
   </g>
   <g id="xtick_6">
    <g id="line2d_7">
     <path d="M 229.665985 392.405019 
L 226.910325 394.955858 
" style="fill:none;stroke:#000000;stroke-linecap:square;stroke-width:0.8;"/>
    </g>
    <g id="text_6">
     <!-- 25 -->
     <g transform="translate(215.910851 417.332192)scale(0.1 -0.1)">
      <use xlink:href="#DejaVuSans-50"/>
      <use x="63.623047" xlink:href="#DejaVuSans-53"/>
     </g>
    </g>
   </g>
   <g id="xtick_7">
    <g id="line2d_8">
     <path d="M 250.746101 399.120088 
L 248.017048 401.69669 
" style="fill:none;stroke:#000000;stroke-linecap:square;stroke-width:0.8;"/>
    </g>
    <g id="text_7">
     <!-- 30 -->
     <defs>
      <path d="M 40.578125 39.3125 
Q 47.65625 37.796875 51.625 33 
Q 55.609375 28.21875 55.609375 21.1875 
Q 55.609375 10.40625 48.1875 4.484375 
Q 40.765625 -1.421875 27.09375 -1.421875 
Q 22.515625 -1.421875 17.65625 -0.515625 
Q 12.796875 0.390625 7.625 2.203125 
L 7.625 11.71875 
Q 11.71875 9.328125 16.59375 8.109375 
Q 21.484375 6.890625 26.8125 6.890625 
Q 36.078125 6.890625 40.9375 10.546875 
Q 45.796875 14.203125 45.796875 21.1875 
Q 45.796875 27.640625 41.28125 31.265625 
Q 36.765625 34.90625 28.71875 34.90625 
L 20.21875 34.90625 
L 20.21875 43.015625 
L 29.109375 43.015625 
Q 36.375 43.015625 40.234375 45.921875 
Q 44.09375 48.828125 44.09375 54.296875 
Q 44.09375 59.90625 40.109375 62.90625 
Q 36.140625 65.921875 28.71875 65.921875 
Q 24.65625 65.921875 20.015625 65.03125 
Q 15.375 64.15625 9.8125 62.3125 
L 9.8125 71.09375 
Q 15.4375 72.65625 20.34375 73.4375 
Q 25.25 74.21875 29.59375 74.21875 
Q 40.828125 74.21875 47.359375 69.109375 
Q 53.90625 64.015625 53.90625 55.328125 
Q 53.90625 49.265625 50.4375 45.09375 
Q 46.96875 40.921875 40.578125 39.3125 
z
" id="DejaVuSans-51"/>
     </defs>
     <g transform="translate(236.99941 424.149223)scale(0.1 -0.1)">
      <use xlink:href="#DejaVuSans-51"/>
      <use x="63.623047" xlink:href="#DejaVuSans-48"/>
     </g>
    </g>
   </g>
   <g id="xtick_8">
    <g id="line2d_9">
     <path d="M 272.039462 405.903085 
L 269.337698 408.505844 
" style="fill:none;stroke:#000000;stroke-linecap:square;stroke-width:0.8;"/>
    </g>
    <g id="text_8">
     <!-- 35 -->
     <g transform="translate(258.301763 431.035365)scale(0.1 -0.1)">
      <use xlink:href="#DejaVuSans-51"/>
      <use x="63.623047" xlink:href="#DejaVuSans-53"/>
     </g>
    </g>
   </g>
   <g id="xtick_9">
    <g id="line2d_10">
     <path d="M 293.54932 412.755048 
L 290.875543 415.384363 
" style="fill:none;stroke:#000000;stroke-linecap:square;stroke-width:0.8;"/>
    </g>
    <g id="text_9">
     <!-- 40 -->
     <defs>
      <path d="M 37.796875 64.3125 
L 12.890625 25.390625 
L 37.796875 25.390625 
z
M 35.203125 72.90625 
L 47.609375 72.90625 
L 47.609375 25.390625 
L 58.015625 25.390625 
L 58.015625 17.1875 
L 47.609375 17.1875 
L 47.609375 0 
L 37.796875 0 
L 37.796875 17.1875 
L 4.890625 17.1875 
L 4.890625 26.703125 
z
" id="DejaVuSans-52"/>
     </defs>
     <g transform="translate(279.82118 437.991674)scale(0.1 -0.1)">
      <use xlink:href="#DejaVuSans-52"/>
      <use x="63.623047" xlink:href="#DejaVuSans-48"/>
     </g>
    </g>
   </g>
  </g>
  <g id="axis3d_2">
   <g id="line2d_11">
    <path d="M 407.663976 315.781468 
L 305.313474 417.664816 
" style="fill:none;stroke:#000000;stroke-linecap:square;stroke-width:0.8;"/>
   </g>
   <g id="Line3DCollection_2">
    <path d="M 114.767288 163.436256 
L 122.407062 350.553444 
L 312.318192 410.692069 
" style="fill:none;stroke:#b0b0b0;stroke-width:0.8;"/>
    <path d="M 128.428844 153.733557 
L 135.309448 339.785866 
L 324.160582 398.903731 
" style="fill:none;stroke:#b0b0b0;stroke-width:0.8;"/>
    <path d="M 141.852651 144.199713 
L 147.998633 329.196213 
L 335.798338 387.319092 
" style="fill:none;stroke:#b0b0b0;stroke-width:0.8;"/>
    <path d="M 155.044861 134.830353 
L 160.479858 318.78011 
L 347.236721 375.932918 
" style="fill:none;stroke:#b0b0b0;stroke-width:0.8;"/>
    <path d="M 168.011416 125.621257 
L 172.758195 308.533327 
L 358.480808 364.740151 
" style="fill:none;stroke:#b0b0b0;stroke-width:0.8;"/>
    <path d="M 180.758057 116.568348 
L 184.83855 298.451768 
L 369.53551 353.735906 
" style="fill:none;stroke:#b0b0b0;stroke-width:0.8;"/>
    <path d="M 193.290333 107.667687 
L 196.725673 288.531469 
L 380.405571 342.915459 
" style="fill:none;stroke:#b0b0b0;stroke-width:0.8;"/>
    <path d="M 205.613604 98.915464 
L 208.424165 278.76859 
L 391.095578 332.274243 
" style="fill:none;stroke:#b0b0b0;stroke-width:0.8;"/>
    <path d="M 217.733057 90.307996 
L 219.938479 269.159416 
L 401.609969 321.807843 
" style="fill:none;stroke:#b0b0b0;stroke-width:0.8;"/>
   </g>
   <g id="xtick_10">
    <g id="line2d_12">
     <path d="M 310.728803 410.188762 
L 315.500523 411.699809 
" style="fill:none;stroke:#000000;stroke-linecap:square;stroke-width:0.8;"/>
    </g>
    <g id="text_10">
     <!-- −40 -->
     <defs>
      <path d="M 10.59375 35.5 
L 73.1875 35.5 
L 73.1875 27.203125 
L 10.59375 27.203125 
z
" id="DejaVuSans-8722"/>
     </defs>
     <g transform="translate(312.993004 432.342476)scale(0.1 -0.1)">
      <use xlink:href="#DejaVuSans-8722"/>
      <use x="83.789062" xlink:href="#DejaVuSans-52"/>
      <use x="147.412109" xlink:href="#DejaVuSans-48"/>
     </g>
    </g>
   </g>
   <g id="xtick_11">
    <g id="line2d_13">
     <path d="M 322.580671 398.409157 
L 327.323903 399.893976 
" style="fill:none;stroke:#000000;stroke-linecap:square;stroke-width:0.8;"/>
    </g>
    <g id="text_11">
     <!-- −35 -->
     <g transform="translate(324.73275 420.436539)scale(0.1 -0.1)">
      <use xlink:href="#DejaVuSans-8722"/>
      <use x="83.789062" xlink:href="#DejaVuSans-51"/>
      <use x="147.412109" xlink:href="#DejaVuSans-53"/>
     </g>
    </g>
   </g>
   <g id="xtick_12">
    <g id="line2d_14">
     <path d="M 334.227818 386.833026 
L 338.94283 388.292293 
" style="fill:none;stroke:#000000;stroke-linecap:square;stroke-width:0.8;"/>
    </g>
    <g id="text_12">
     <!-- −30 -->
     <g transform="translate(336.269719 408.736249)scale(0.1 -0.1)">
      <use xlink:href="#DejaVuSans-8722"/>
      <use x="83.789062" xlink:href="#DejaVuSans-51"/>
      <use x="147.412109" xlink:href="#DejaVuSans-48"/>
     </g>
    </g>
   </g>
   <g id="xtick_13">
    <g id="line2d_15">
     <path d="M 345.675501 375.455141 
L 350.36256 376.889512 
" style="fill:none;stroke:#000000;stroke-linecap:square;stroke-width:0.8;"/>
    </g>
    <g id="text_13">
     <!-- −25 -->
     <g transform="translate(347.609119 397.236324)scale(0.1 -0.1)">
      <use xlink:href="#DejaVuSans-8722"/>
      <use x="83.789062" xlink:href="#DejaVuSans-50"/>
      <use x="147.412109" xlink:href="#DejaVuSans-53"/>
     </g>
    </g>
   </g>
   <g id="xtick_14">
    <g id="line2d_16">
     <path d="M 356.928801 364.270454 
L 361.588172 365.68056 
" style="fill:none;stroke:#000000;stroke-linecap:square;stroke-width:0.8;"/>
    </g>
    <g id="text_14">
     <!-- −20 -->
     <g transform="translate(358.755983 385.931661)scale(0.1 -0.1)">
      <use xlink:href="#DejaVuSans-8722"/>
      <use x="83.789062" xlink:href="#DejaVuSans-50"/>
      <use x="147.412109" xlink:href="#DejaVuSans-48"/>
     </g>
    </g>
   </g>
   <g id="xtick_15">
    <g id="line2d_17">
     <path d="M 367.992629 353.274085 
L 372.624576 354.660536 
" style="fill:none;stroke:#000000;stroke-linecap:square;stroke-width:0.8;"/>
    </g>
    <g id="text_15">
     <!-- −15 -->
     <g transform="translate(369.715173 374.81733)scale(0.1 -0.1)">
      <use xlink:href="#DejaVuSans-8722"/>
      <use x="83.789062" xlink:href="#DejaVuSans-49"/>
      <use x="147.412109" xlink:href="#DejaVuSans-53"/>
     </g>
    </g>
   </g>
   <g id="xtick_16">
    <g id="line2d_18">
     <path d="M 378.871728 342.461318 
L 383.476513 343.824704 
" style="fill:none;stroke:#000000;stroke-linecap:square;stroke-width:0.8;"/>
    </g>
    <g id="text_16">
     <!-- −10 -->
     <g transform="translate(380.491388 363.888562)scale(0.1 -0.1)">
      <use xlink:href="#DejaVuSans-8722"/>
      <use x="83.789062" xlink:href="#DejaVuSans-49"/>
      <use x="147.412109" xlink:href="#DejaVuSans-48"/>
     </g>
    </g>
   </g>
   <g id="xtick_17">
    <g id="line2d_19">
     <path d="M 389.570687 331.827593 
L 394.148571 333.168485 
" style="fill:none;stroke:#000000;stroke-linecap:square;stroke-width:0.8;"/>
    </g>
    <g id="text_17">
     <!-- −5 -->
     <g transform="translate(394.270424 353.14075)scale(0.1 -0.1)">
      <use xlink:href="#DejaVuSans-8722"/>
      <use x="83.789062" xlink:href="#DejaVuSans-53"/>
     </g>
    </g>
   </g>
   <g id="xtick_18">
    <g id="line2d_20">
     <path d="M 400.093944 321.368498 
L 404.645186 322.687449 
" style="fill:none;stroke:#000000;stroke-linecap:square;stroke-width:0.8;"/>
    </g>
    <g id="text_18">
     <!-- 0 -->
     <g transform="translate(408.88402 342.569436)scale(0.1 -0.1)">
      <use xlink:href="#DejaVuSans-48"/>
     </g>
    </g>
   </g>
  </g>
  <g id="axis3d_3">
   <g id="line2d_21">
    <path d="M 407.663976 315.781468 
L 415.240655 132.134565 
" style="fill:none;stroke:#000000;stroke-linecap:square;stroke-width:0.8;"/>
   </g>
   <g id="Line3DCollection_3">
    <path d="M 408.057998 306.231004 
L 226.474838 254.333542 
L 114.35981 347.170955 
" style="fill:none;stroke:#b0b0b0;stroke-width:0.8;"/>
    <path d="M 409.320672 275.625735 
L 226.164168 224.576925 
L 113.012559 315.922401 
" style="fill:none;stroke:#b0b0b0;stroke-width:0.8;"/>
    <path d="M 410.605612 244.480802 
L 225.848252 194.317794 
L 111.640759 284.104437 
" style="fill:none;stroke:#b0b0b0;stroke-width:0.8;"/>
    <path d="M 411.91341 212.781805 
L 225.526956 163.54331 
L 110.243731 251.701358 
" style="fill:none;stroke:#b0b0b0;stroke-width:0.8;"/>
    <path d="M 413.244683 180.513825 
L 225.20014 132.240195 
L 108.820775 218.696872 
" style="fill:none;stroke:#b0b0b0;stroke-width:0.8;"/>
    <path d="M 414.600067 147.661404 
L 224.867662 100.394711 
L 107.371161 185.074081 
" style="fill:none;stroke:#b0b0b0;stroke-width:0.8;"/>
   </g>
   <g id="xtick_19">
    <g id="line2d_22">
     <path d="M 406.542837 305.797963 
L 411.091475 307.097989 
" style="fill:none;stroke:#000000;stroke-linecap:square;stroke-width:0.8;"/>
    </g>
    <g id="text_19">
     <!-- −3 -->
     <g transform="translate(416.942501 311.563499)scale(0.1 -0.1)">
      <use xlink:href="#DejaVuSans-8722"/>
      <use x="83.789062" xlink:href="#DejaVuSans-51"/>
     </g>
    </g>
   </g>
   <g id="xtick_20">
    <g id="line2d_23">
     <path d="M 407.791833 275.199622 
L 412.381564 276.478857 
" style="fill:none;stroke:#000000;stroke-linecap:square;stroke-width:0.8;"/>
    </g>
    <g id="text_20">
     <!-- −2 -->
     <g transform="translate(418.344669 280.994509)scale(0.1 -0.1)">
      <use xlink:href="#DejaVuSans-8722"/>
      <use x="83.789062" xlink:href="#DejaVuSans-50"/>
     </g>
    </g>
   </g>
   <g id="xtick_21">
    <g id="line2d_24">
     <path d="M 409.062845 244.061929 
L 413.694417 245.319436 
" style="fill:none;stroke:#000000;stroke-linecap:square;stroke-width:0.8;"/>
    </g>
    <g id="text_21">
     <!-- −1 -->
     <g transform="translate(419.771515 249.887491)scale(0.1 -0.1)">
      <use xlink:href="#DejaVuSans-8722"/>
      <use x="83.789062" xlink:href="#DejaVuSans-49"/>
     </g>
    </g>
   </g>
   <g id="xtick_22">
    <g id="line2d_25">
     <path d="M 410.356459 212.370498 
L 415.030643 213.605297 
" style="fill:none;stroke:#000000;stroke-linecap:square;stroke-width:0.8;"/>
    </g>
    <g id="text_22">
     <!-- 0 -->
     <g transform="translate(425.413541 218.228114)scale(0.1 -0.1)">
      <use xlink:href="#DejaVuSans-48"/>
     </g>
    </g>
   </g>
   <g id="xtick_23">
    <g id="line2d_26">
     <path d="M 411.673285 180.110425 
L 416.39087 181.321494 
" style="fill:none;stroke:#000000;stroke-linecap:square;stroke-width:0.8;"/>
    </g>
    <g id="text_23">
     <!-- 1 -->
     <g transform="translate(426.89174 186.001534)scale(0.1 -0.1)">
      <use xlink:href="#DejaVuSans-49"/>
     </g>
    </g>
   </g>
   <g id="xtick_24">
    <g id="line2d_27">
     <path d="M 413.013953 147.266267 
L 417.775751 148.45254 
" style="fill:none;stroke:#000000;stroke-linecap:square;stroke-width:0.8;"/>
    </g>
    <g id="text_24">
     <!-- 2 -->
     <g transform="translate(428.396662 153.192371)scale(0.1 -0.1)">
      <use xlink:href="#DejaVuSans-50"/>
     </g>
    </g>
   </g>
  </g>
  <g id="axes_1">
   <g id="line2d_28">
    <path clip-path="url(#p861b3a9f4a)" d="M 230.121834 171.799986 
L 393.303575 215.18273 
" style="fill:none;stroke:#000000;stroke-linecap:square;stroke-width:1.5;"/>
   </g>
   <g id="line2d_29">
    <path clip-path="url(#p861b3a9f4a)" d="M 130.045459 249.146661 
L 230.121834 171.799986 
" style="fill:none;stroke:#000000;stroke-linecap:square;stroke-width:1.5;"/>
   </g>
   <g id="line2d_30">
    <path clip-path="url(#p861b3a9f4a)" d="M 230.121834 171.799986 
L 233.73099 162.535653 
L 236.641723 155.631681 
L 239.57217 149.186031 
L 242.521291 143.205045 
L 245.488022 137.694752 
L 248.471274 132.660853 
L 251.469933 128.108713 
L 254.482862 124.043346 
L 256.751228 121.316579 
L 259.026475 118.868076 
L 261.308101 116.699543 
L 263.595597 114.812569 
L 265.888452 113.208614 
L 268.186148 111.889018 
L 270.488162 110.854991 
L 272.793968 110.107614 
L 275.103037 109.647838 
L 277.414834 109.476484 
L 279.728823 109.594237 
L 282.044465 110.001651 
L 284.361219 110.699145 
L 286.678542 111.687001 
L 288.99589 112.965365 
L 291.312719 114.53425 
L 293.628482 116.393527 
L 295.942633 118.542935 
L 298.254629 120.982073 
L 300.563925 123.710405 
L 302.869977 126.72726 
L 305.172245 130.031828 
L 308.235117 134.883827 
L 311.289031 140.243023 
L 314.332727 146.106391 
L 317.364955 152.470497 
L 320.384479 159.331496 
L 323.390076 166.685143 
L 326.380543 174.5268 
L 329.35469 182.851447 
L 332.311352 191.653687 
L 332.311352 191.653687 
" style="fill:none;stroke:#ff7f0e;stroke-linecap:square;stroke-width:1.5;"/>
   </g>
   <g id="line2d_31">
    <path clip-path="url(#p861b3a9f4a)" d="M 230.121834 171.799986 
L 227.819555 163.250885 
L 225.505229 155.402329 
L 223.180183 148.268107 
L 220.845781 141.86132 
L 218.972461 137.267977 
L 217.094777 133.154097 
L 215.213469 129.525327 
L 213.32929 126.386971 
L 211.443002 123.743981 
L 210.027366 122.089593 
L 208.611306 120.718232 
L 207.195154 119.631573 
L 205.779241 118.831165 
L 204.363903 118.318435 
L 202.949477 118.094681 
L 201.5363 118.16107 
L 200.124711 118.518638 
L 198.71505 119.16829 
L 197.307656 120.110795 
L 195.902872 121.346784 
L 194.501036 122.876755 
L 193.102491 124.701064 
L 191.707575 126.819931 
L 189.853919 130.103407 
L 188.008119 133.910467 
L 186.170972 138.240468 
L 184.343268 143.092323 
L 182.525792 148.464499 
L 180.269511 155.908371 
L 178.031918 164.157304 
L 175.814485 173.20541 
L 173.618655 183.045752 
L 171.014158 195.888619 
L 168.445171 209.845079 
L 165.913988 224.897399 
L 163.422817 241.025881 
L 160.973774 258.208931 
L 158.172493 279.557375 
L 156.991095 289.126517 
L 156.991095 289.126517 
" style="fill:none;stroke:#2ca02c;stroke-linecap:square;stroke-width:1.5;"/>
   </g>
   <g id="Poly3DCollection_1">
    <path clip-path="url(#p861b3a9f4a)" d="M 225.182736 175.896742 
L 233.483161 178.0588 
L 238.404306 173.946643 
L 230.121834 171.799986 
z
" style="fill:#e7745b;fill-opacity:0.5;"/>
    <path clip-path="url(#p861b3a9f4a)" d="M 233.483161 178.0588 
L 241.816172 180.118342 
L 246.719333 175.990939 
L 238.404306 173.946643 
z
" style="fill:#e7745b;fill-opacity:0.5;"/>
    <path clip-path="url(#p861b3a9f4a)" d="M 220.217046 180.576526 
L 228.534214 182.754925 
L 233.483161 178.0588 
L 225.182736 175.896742 
z
" style="fill:#e8765c;fill-opacity:0.5;"/>
    <path clip-path="url(#p861b3a9f4a)" d="M 241.816172 180.118342 
L 250.182737 182.074932 
L 255.067878 177.93244 
L 246.719333 175.990939 
z
" style="fill:#e67259;fill-opacity:0.5;"/>
    <path clip-path="url(#p861b3a9f4a)" d="M 228.534214 182.754925 
L 236.88399 184.830689 
L 241.816172 180.118342 
L 233.483161 178.0588 
z
" style="fill:#e8765c;fill-opacity:0.5;"/>
    <path clip-path="url(#p861b3a9f4a)" d="M 250.182737 182.074932 
L 258.583837 183.928108 
L 263.450916 179.770687 
L 255.067878 177.93244 
z
" style="fill:#e67259;fill-opacity:0.5;"/>
    <path clip-path="url(#p861b3a9f4a)" d="M 215.226794 185.842815 
L 223.559482 188.038504 
L 228.534214 182.754925 
L 220.217046 180.576526 
z
" style="fill:#ea7b60;fill-opacity:0.5;"/>
    <path clip-path="url(#p861b3a9f4a)" d="M 236.88399 184.830689 
L 245.267346 186.803379 
L 250.182737 182.074932 
L 241.816172 180.118342 
z
" style="fill:#e8765c;fill-opacity:0.5;"/>
    <path clip-path="url(#p861b3a9f4a)" d="M 258.583837 183.928108 
L 267.020467 185.677389 
L 271.869439 181.505198 
L 263.450916 179.770687 
z
" style="fill:#e57058;fill-opacity:0.5;"/>
    <path clip-path="url(#p861b3a9f4a)" d="M 223.559482 188.038504 
L 231.924788 190.131473 
L 236.88399 184.830689 
L 228.534214 182.754925 
z
" style="fill:#ea7b60;fill-opacity:0.5;"/>
    <path clip-path="url(#p861b3a9f4a)" d="M 210.214058 191.69859 
L 218.561028 193.912521 
L 223.559482 188.038504 
L 215.226794 185.842815 
z
" style="fill:#ed8366;fill-opacity:0.5;"/>
    <path clip-path="url(#p861b3a9f4a)" d="M 245.267346 186.803379 
L 253.685266 188.672534 
L 258.583837 183.928108 
L 250.182737 182.074932 
z
" style="fill:#e7745b;fill-opacity:0.5;"/>
    <path clip-path="url(#p861b3a9f4a)" d="M 267.020467 185.677389 
L 275.493639 187.322268 
L 280.32445 183.135469 
L 271.869439 181.505198 
z
" style="fill:#e36c55;fill-opacity:0.5;"/>
    <path clip-path="url(#p861b3a9f4a)" d="M 231.924788 190.131473 
L 240.323688 192.121286 
L 245.267346 186.803379 
L 236.88399 184.830689 
z
" style="fill:#e97a5f;fill-opacity:0.5;"/>
    <path clip-path="url(#p861b3a9f4a)" d="M 218.561028 193.912521 
L 226.940616 196.023688 
L 231.924788 190.131473 
L 223.559482 188.038504 
z
" style="fill:#ec8165;fill-opacity:0.5;"/>
    <path clip-path="url(#p861b3a9f4a)" d="M 253.685266 188.672534 
L 262.138753 190.437672 
L 267.020467 185.677389 
L 258.583837 183.928108 
z
" style="fill:#e67259;fill-opacity:0.5;"/>
    <path clip-path="url(#p861b3a9f4a)" d="M 205.180964 198.146317 
L 213.540965 200.37945 
L 218.561028 193.912521 
L 210.214058 191.69859 
z
" style="fill:#f08b6e;fill-opacity:0.5;"/>
    <path clip-path="url(#p861b3a9f4a)" d="M 275.493639 187.322268 
L 284.004379 188.862216 
L 288.816971 184.660971 
L 280.32445 183.135469 
z
" style="fill:#e36b54;fill-opacity:0.5;"/>
    <path clip-path="url(#p861b3a9f4a)" d="M 240.323688 192.121286 
L 248.757173 194.007481 
L 253.685266 188.672534 
L 245.267346 186.803379 
z
" style="fill:#e9785d;fill-opacity:0.5;"/>
    <path clip-path="url(#p861b3a9f4a)" d="M 226.940616 196.023688 
L 235.353801 198.031653 
L 240.323688 192.121286 
L 231.924788 190.131473 
z
" style="fill:#ec8165;fill-opacity:0.5;"/>
    <path clip-path="url(#p861b3a9f4a)" d="M 262.138753 190.437672 
L 270.628821 192.098286 
L 275.493639 187.322268 
L 267.020467 185.677389 
z
" style="fill:#e57058;fill-opacity:0.5;"/>
    <path clip-path="url(#p861b3a9f4a)" d="M 213.540965 200.37945 
L 221.933572 202.509813 
L 226.940616 196.023688 
L 218.561028 193.912521 
z
" style="fill:#f08a6c;fill-opacity:0.5;"/>
    <path clip-path="url(#p861b3a9f4a)" d="M 248.757173 194.007481 
L 257.226247 195.789574 
L 262.138753 190.437672 
L 253.685266 188.672534 
z
" style="fill:#e8765c;fill-opacity:0.5;"/>
    <path clip-path="url(#p861b3a9f4a)" d="M 284.004379 188.862216 
L 292.553728 190.296679 
L 297.348039 186.081152 
L 288.816971 184.660971 
z
" style="fill:#e16751;fill-opacity:0.5;"/>
    <path clip-path="url(#p861b3a9f4a)" d="M 200.129679 205.187943 
L 208.501448 207.441242 
L 213.540965 200.37945 
L 205.180964 198.146317 
z
" style="fill:#f39577;fill-opacity:0.5;"/>
    <path clip-path="url(#p861b3a9f4a)" d="M 235.353801 198.031653 
L 243.801578 199.935956 
L 248.757173 194.007481 
L 240.323688 192.121286 
z
" style="fill:#ec7f63;fill-opacity:0.5;"/>
    <path clip-path="url(#p861b3a9f4a)" d="M 270.628821 192.098286 
L 279.156503 193.653844 
L 284.004379 188.862216 
L 275.493639 187.322268 
z
" style="fill:#e36c55;fill-opacity:0.5;"/>
    <path clip-path="url(#p861b3a9f4a)" d="M 221.933572 202.509813 
L 230.359769 204.536966 
L 235.353801 198.031653 
L 226.940616 196.023688 
z
" style="fill:#f08a6c;fill-opacity:0.5;"/>
    <path clip-path="url(#p861b3a9f4a)" d="M 257.226247 195.789574 
L 265.731932 197.467058 
L 270.628821 192.098286 
L 262.138753 190.437672 
z
" style="fill:#e7745b;fill-opacity:0.5;"/>
    <path clip-path="url(#p861b3a9f4a)" d="M 208.501448 207.441242 
L 216.905801 209.5918 
L 221.933572 202.509813 
L 213.540965 200.37945 
z
" style="fill:#f39577;fill-opacity:0.5;"/>
    <path clip-path="url(#p861b3a9f4a)" d="M 292.553728 190.296679 
L 301.142746 191.625078 
L 305.918706 187.395436 
L 297.348039 186.081152 
z
" style="fill:#df634e;fill-opacity:0.5;"/>
    <path clip-path="url(#p861b3a9f4a)" d="M 195.062413 212.824883 
L 203.444676 215.09931 
L 208.501448 207.441242 
L 200.129679 205.187943 
z
" style="fill:#f5a081;fill-opacity:0.5;"/>
    <path clip-path="url(#p861b3a9f4a)" d="M 243.801578 199.935956 
L 252.284958 201.736111 
L 257.226247 195.789574 
L 248.757173 194.007481 
z
" style="fill:#eb7d62;fill-opacity:0.5;"/>
    <path clip-path="url(#p861b3a9f4a)" d="M 279.156503 193.653844 
L 287.722845 195.103791 
L 292.553728 190.296679 
L 284.004379 188.862216 
z
" style="fill:#e26952;fill-opacity:0.5;"/>
    <path clip-path="url(#p861b3a9f4a)" d="M 230.359769 204.536966 
L 238.820554 206.46045 
L 243.801578 199.935956 
L 235.353801 198.031653 
z
" style="fill:#ef886b;fill-opacity:0.5;"/>
    <path clip-path="url(#p861b3a9f4a)" d="M 216.905801 209.5918 
L 225.343723 211.639181 
L 230.359769 204.536966 
L 221.933572 202.509813 
z
" style="fill:#f39475;fill-opacity:0.5;"/>
    <path clip-path="url(#p861b3a9f4a)" d="M 265.731932 197.467058 
L 274.275263 199.039402 
L 279.156503 193.653844 
L 270.628821 192.098286 
z
" style="fill:#e67259;fill-opacity:0.5;"/>
    <path clip-path="url(#p861b3a9f4a)" d="M 301.142746 191.625078 
L 309.772509 192.846809 
L 314.530043 188.603219 
L 305.918706 187.395436 
z
" style="fill:#dd5f4b;fill-opacity:0.5;"/>
    <path clip-path="url(#p861b3a9f4a)" d="M 203.444676 215.09931 
L 211.859487 217.271066 
L 216.905801 209.5918 
L 208.501448 207.441242 
z
" style="fill:#f5a081;fill-opacity:0.5;"/>
    <path clip-path="url(#p861b3a9f4a)" d="M 252.284958 201.736111 
L 260.804964 203.431612 
L 265.731932 197.467058 
L 257.226247 195.789574 
z
" style="fill:#ea7b60;fill-opacity:0.5;"/>
    <path clip-path="url(#p861b3a9f4a)" d="M 189.981412 221.05801 
L 198.372883 223.354528 
L 203.444676 215.09931 
L 195.062413 212.824883 
z
" style="fill:#f7ad90;fill-opacity:0.5;"/>
    <path clip-path="url(#p861b3a9f4a)" d="M 287.722845 195.103791 
L 296.328913 196.447548 
L 301.142746 191.625078 
L 292.553728 190.296679 
z
" style="fill:#e0654f;fill-opacity:0.5;"/>
    <path clip-path="url(#p861b3a9f4a)" d="M 238.820554 206.46045 
L 247.316942 208.279782 
L 252.284958 201.736111 
L 243.801578 199.935956 
z
" style="fill:#ee8669;fill-opacity:0.5;"/>
    <path clip-path="url(#p861b3a9f4a)" d="M 225.343723 211.639181 
L 233.81622 213.582926 
L 238.820554 206.46045 
L 230.359769 204.536966 
z
" style="fill:#f29274;fill-opacity:0.5;"/>
    <path clip-path="url(#p861b3a9f4a)" d="M 274.275263 199.039402 
L 282.857294 200.506049 
L 287.722845 195.103791 
L 279.156503 193.653844 
z
" style="fill:#e46e56;fill-opacity:0.5;"/>
    <path clip-path="url(#p861b3a9f4a)" d="M 211.859487 217.271066 
L 220.30784 219.339717 
L 225.343723 211.639181 
L 216.905801 209.5918 
z
" style="fill:#f5a081;fill-opacity:0.5;"/>
    <path clip-path="url(#p861b3a9f4a)" d="M 309.772509 192.846809 
L 318.44411 193.961243 
L 323.183137 189.703875 
L 314.530043 188.603219 
z
" style="fill:#d95847;fill-opacity:0.5;"/>
    <path clip-path="url(#p861b3a9f4a)" d="M 198.372883 223.354528 
L 206.796859 225.548484 
L 211.859487 217.271066 
L 203.444676 215.09931 
z
" style="fill:#f7ad90;fill-opacity:0.5;"/>
    <path clip-path="url(#p861b3a9f4a)" d="M 260.804964 203.431612 
L 269.362638 205.021927 
L 274.275263 199.039402 
L 265.731932 197.467058 
z
" style="fill:#e9785d;fill-opacity:0.5;"/>
    <path clip-path="url(#p861b3a9f4a)" d="M 184.888956 229.887649 
L 193.288343 232.207217 
L 198.372883 223.354528 
L 189.981412 221.05801 
z
" style="fill:#f7ba9f;fill-opacity:0.5;"/>
    <path clip-path="url(#p861b3a9f4a)" d="M 296.328913 196.447548 
L 304.975787 197.684508 
L 309.772509 192.846809 
L 301.142746 191.625078 
z
" style="fill:#de614d;fill-opacity:0.5;"/>
    <path clip-path="url(#p861b3a9f4a)" d="M 247.316942 208.279782 
L 255.849961 209.994453 
L 260.804964 203.431612 
L 252.284958 201.736111 
z
" style="fill:#ee8468;fill-opacity:0.5;"/>
    <path clip-path="url(#p861b3a9f4a)" d="M 233.81622 213.582926 
L 242.324306 215.422552 
L 247.316942 208.279782 
L 238.820554 206.46045 
z
" style="fill:#f29072;fill-opacity:0.5;"/>
    <path clip-path="url(#p861b3a9f4a)" d="M 282.857294 200.506049 
L 291.479093 201.866419 
L 296.328913 196.447548 
L 287.722845 195.103791 
z
" style="fill:#e36b54;fill-opacity:0.5;"/>
    <path clip-path="url(#p861b3a9f4a)" d="M 220.30784 219.339717 
L 228.790739 221.304803 
L 233.81622 213.582926 
L 225.343723 211.639181 
z
" style="fill:#f59f80;fill-opacity:0.5;"/>
    <path clip-path="url(#p861b3a9f4a)" d="M 206.796859 225.548484 
L 215.254335 227.639444 
L 220.30784 219.339717 
L 211.859487 217.271066 
z
" style="fill:#f7ac8e;fill-opacity:0.5;"/>
    <path clip-path="url(#p861b3a9f4a)" d="M 318.44411 193.961243 
L 327.158661 194.967724 
L 331.879094 190.696751 
L 323.183137 189.703875 
z
" style="fill:#d75445;fill-opacity:0.5;"/>
    <path clip-path="url(#p861b3a9f4a)" d="M 193.288343 232.207217 
L 201.72018 234.424371 
L 206.796859 225.548484 
L 198.372883 223.354528 
z
" style="fill:#f7ba9f;fill-opacity:0.5;"/>
    <path clip-path="url(#p861b3a9f4a)" d="M 179.787358 239.313566 
L 188.19336 241.65714 
L 193.288343 232.207217 
L 184.888956 229.887649 
z
" style="fill:#f3c7b1;fill-opacity:0.5;"/>
    <path clip-path="url(#p861b3a9f4a)" d="M 269.362638 205.021927 
L 277.959036 206.5065 
L 282.857294 200.506049 
L 274.275263 199.039402 
z
" style="fill:#e8765c;fill-opacity:0.5;"/>
    <path clip-path="url(#p861b3a9f4a)" d="M 255.849961 209.994453 
L 264.420656 211.603933 
L 269.362638 205.021927 
L 260.804964 203.431612 
z
" style="fill:#ec8165;fill-opacity:0.5;"/>
    <path clip-path="url(#p861b3a9f4a)" d="M 304.975787 197.684508 
L 313.664567 198.814042 
L 318.44411 193.961243 
L 309.772509 192.846809 
z
" style="fill:#dc5d4a;fill-opacity:0.5;"/>
    <path clip-path="url(#p861b3a9f4a)" d="M 242.324306 215.422552 
L 250.869017 217.157552 
L 255.849961 209.994453 
L 247.316942 208.279782 
z
" style="fill:#f18f71;fill-opacity:0.5;"/>
    <path clip-path="url(#p861b3a9f4a)" d="M 291.479093 201.866419 
L 300.141748 203.119905 
L 304.975787 197.684508 
L 296.328913 196.447548 
z
" style="fill:#e16751;fill-opacity:0.5;"/>
    <path clip-path="url(#p861b3a9f4a)" d="M 228.790739 221.304803 
L 237.309204 223.165844 
L 242.324306 215.422552 
L 233.81622 213.582926 
z
" style="fill:#f59d7e;fill-opacity:0.5;"/>
    <path clip-path="url(#p861b3a9f4a)" d="M 215.254335 227.639444 
L 223.746318 229.626953 
L 228.790739 221.304803 
L 220.30784 219.339717 
z
" style="fill:#f7ac8e;fill-opacity:0.5;"/>
    <path clip-path="url(#p861b3a9f4a)" d="M 174.678957 249.334968 
L 183.090268 251.703494 
L 188.19336 241.65714 
L 179.787358 239.313566 
z
" style="fill:#ecd3c5;fill-opacity:0.5;"/>
    <path clip-path="url(#p861b3a9f4a)" d="M 201.72018 234.424371 
L 210.185463 236.53868 
L 215.254335 227.639444 
L 206.796859 225.548484 
z
" style="fill:#f7b99e;fill-opacity:0.5;"/>
    <path clip-path="url(#p861b3a9f4a)" d="M 188.19336 241.65714 
L 196.631746 243.898486 
L 201.72018 234.424371 
L 193.288343 232.207217 
z
" style="fill:#f3c7b1;fill-opacity:0.5;"/>
    <path clip-path="url(#p861b3a9f4a)" d="M 327.158661 194.967724 
L 335.917291 195.865571 
L 340.619038 191.581166 
L 331.879094 190.696751 
z
" style="fill:#d44e41;fill-opacity:0.5;"/>
    <path clip-path="url(#p861b3a9f4a)" d="M 277.959036 206.5065 
L 286.595234 207.884749 
L 291.479093 201.866419 
L 282.857294 200.506049 
z
" style="fill:#e67259;fill-opacity:0.5;"/>
    <path clip-path="url(#p861b3a9f4a)" d="M 264.420656 211.603933 
L 273.030089 213.107666 
L 277.959036 206.5065 
L 269.362638 205.021927 
z
" style="fill:#ec7f63;fill-opacity:0.5;"/>
    <path clip-path="url(#p861b3a9f4a)" d="M 313.664567 198.814042 
L 322.396369 199.835493 
L 327.158661 194.967724 
L 318.44411 193.961243 
z
" style="fill:#d85646;fill-opacity:0.5;"/>
    <path clip-path="url(#p861b3a9f4a)" d="M 250.869017 217.157552 
L 259.451399 218.787395 
L 264.420656 211.603933 
L 255.849961 209.994453 
z
" style="fill:#f18d6f;fill-opacity:0.5;"/>
    <path clip-path="url(#p861b3a9f4a)" d="M 169.566118 259.950493 
L 177.981427 262.34491 
L 183.090268 251.703494 
L 174.678957 249.334968 
z
" style="fill:#dfdbd9;fill-opacity:0.5;"/>
    <path clip-path="url(#p861b3a9f4a)" d="M 237.309204 223.165844 
L 245.864273 224.922334 
L 250.869017 217.157552 
L 242.324306 215.422552 
z
" style="fill:#f59c7d;fill-opacity:0.5;"/>
    <path clip-path="url(#p861b3a9f4a)" d="M 300.141748 203.119905 
L 308.846361 204.265876 
L 313.664567 198.814042 
L 304.975787 197.684508 
z
" style="fill:#de614d;fill-opacity:0.5;"/>
    <path clip-path="url(#p861b3a9f4a)" d="M 183.090268 251.703494 
L 191.533885 253.97002 
L 196.631746 243.898486 
L 188.19336 241.65714 
z
" style="fill:#ecd3c5;fill-opacity:0.5;"/>
    <path clip-path="url(#p861b3a9f4a)" d="M 223.746318 229.626953 
L 232.273832 231.51053 
L 237.309204 223.165844 
L 228.790739 221.304803 
z
" style="fill:#f7aa8c;fill-opacity:0.5;"/>
    <path clip-path="url(#p861b3a9f4a)" d="M 196.631746 243.898486 
L 205.103513 246.037178 
L 210.185463 236.53868 
L 201.72018 234.424371 
z
" style="fill:#f3c7b1;fill-opacity:0.5;"/>
    <path clip-path="url(#p861b3a9f4a)" d="M 210.185463 236.53868 
L 218.685203 238.54969 
L 223.746318 229.626953 
L 215.254335 227.639444 
z
" style="fill:#f7b99e;fill-opacity:0.5;"/>
    <path clip-path="url(#p861b3a9f4a)" d="M 335.917291 195.865571 
L 344.721151 196.654074 
L 349.404111 192.356415 
L 340.619038 191.581166 
z
" style="fill:#cf453c;fill-opacity:0.5;"/>
    <path clip-path="url(#p861b3a9f4a)" d="M 286.595234 207.884749 
L 295.272322 209.156069 
L 300.141748 203.119905 
L 291.479093 201.866419 
z
" style="fill:#e36c55;fill-opacity:0.5;"/>
    <path clip-path="url(#p861b3a9f4a)" d="M 273.030089 213.107666 
L 281.679338 214.50507 
L 286.595234 207.884749 
L 277.959036 206.5065 
z
" style="fill:#ea7b60;fill-opacity:0.5;"/>
    <path clip-path="url(#p861b3a9f4a)" d="M 164.451228 271.158211 
L 172.869219 273.579446 
L 177.981427 262.34491 
L 169.566118 259.950493 
z
" style="fill:#d1dae9;fill-opacity:0.5;"/>
    <path clip-path="url(#p861b3a9f4a)" d="M 322.396369 199.835493 
L 331.172331 200.748175 
L 335.917291 195.865571 
L 327.158661 194.967724 
z
" style="fill:#d55042;fill-opacity:0.5;"/>
    <path clip-path="url(#p861b3a9f4a)" d="M 259.451399 218.787395 
L 268.072519 220.311528 
L 273.030089 213.107666 
L 264.420656 211.603933 
z
" style="fill:#f08a6c;fill-opacity:0.5;"/>
    <path clip-path="url(#p861b3a9f4a)" d="M 177.981427 262.34491 
L 186.428952 264.637593 
L 191.533885 253.97002 
L 183.090268 251.703494 
z
" style="fill:#e0dbd8;fill-opacity:0.5;"/>
    <path clip-path="url(#p861b3a9f4a)" d="M 245.864273 224.922334 
L 254.456998 226.573744 
L 259.451399 218.787395 
L 250.869017 217.157552 
z
" style="fill:#f4987a;fill-opacity:0.5;"/>
    <path clip-path="url(#p861b3a9f4a)" d="M 191.533885 253.97002 
L 200.010808 256.134121 
L 205.103513 246.037178 
L 196.631746 243.898486 
z
" style="fill:#edd2c3;fill-opacity:0.5;"/>
    <path clip-path="url(#p861b3a9f4a)" d="M 232.273832 231.51053 
L 240.837918 233.289672 
L 245.864273 224.922334 
L 237.309204 223.165844 
z
" style="fill:#f7a889;fill-opacity:0.5;"/>
    <path clip-path="url(#p861b3a9f4a)" d="M 205.103513 246.037178 
L 213.609676 248.072762 
L 218.685203 238.54969 
L 210.185463 236.53868 
z
" style="fill:#f4c6af;fill-opacity:0.5;"/>
    <path clip-path="url(#p861b3a9f4a)" d="M 218.685203 238.54969 
L 227.220427 240.456922 
L 232.273832 231.51053 
L 223.746318 229.626953 
z
" style="fill:#f7b89c;fill-opacity:0.5;"/>
    <path clip-path="url(#p861b3a9f4a)" d="M 308.846361 204.265876 
L 317.594058 205.303673 
L 322.396369 199.835493 
L 313.664567 198.814042 
z
" style="fill:#da5a49;fill-opacity:0.5;"/>
    <path clip-path="url(#p861b3a9f4a)" d="M 159.336691 282.955621 
L 167.756044 285.404587 
L 172.869219 273.579446 
L 164.451228 271.158211 
z
" style="fill:#bcd2f7;fill-opacity:0.5;"/>
    <path clip-path="url(#p861b3a9f4a)" d="M 295.272322 209.156069 
L 303.99141 210.319826 
L 308.846361 204.265876 
L 300.141748 203.119905 
z
" style="fill:#e26952;fill-opacity:0.5;"/>
    <path clip-path="url(#p861b3a9f4a)" d="M 344.721151 196.654074 
L 353.57141 197.332496 
L 358.235477 193.021762 
L 349.404111 192.356415 
z
" style="fill:#cb3e38;fill-opacity:0.5;"/>
    <path clip-path="url(#p861b3a9f4a)" d="M 172.869219 273.579446 
L 181.319326 275.899253 
L 186.428952 264.637593 
L 177.981427 262.34491 
z
" style="fill:#d1dae9;fill-opacity:0.5;"/>
    <path clip-path="url(#p861b3a9f4a)" d="M 281.679338 214.50507 
L 290.369499 215.795539 
L 295.272322 209.156069 
L 286.595234 207.884749 
z
" style="fill:#e8765c;fill-opacity:0.5;"/>
    <path clip-path="url(#p861b3a9f4a)" d="M 186.428952 264.637593 
L 194.909697 266.828121 
L 200.010808 256.134121 
L 191.533885 253.97002 
z
" style="fill:#e0dbd8;fill-opacity:0.5;"/>
    <path clip-path="url(#p861b3a9f4a)" d="M 331.172331 200.748175 
L 339.993608 201.551379 
L 344.721151 196.654074 
L 335.917291 195.865571 
z
" style="fill:#d1493f;fill-opacity:0.5;"/>
    <path clip-path="url(#p861b3a9f4a)" d="M 268.072519 220.311528 
L 276.73346 221.729368 
L 281.679338 214.50507 
L 273.030089 213.107666 
z
" style="fill:#ee8669;fill-opacity:0.5;"/>
    <path clip-path="url(#p861b3a9f4a)" d="M 154.224923 295.339647 
L 162.644321 297.817242 
L 167.756044 285.404587 
L 159.336691 282.955621 
z
" style="fill:#a6c4fe;fill-opacity:0.5;"/>
    <path clip-path="url(#p861b3a9f4a)" d="M 200.010808 256.134121 
L 208.522053 258.195347 
L 213.609676 248.072762 
L 205.103513 246.037178 
z
" style="fill:#edd1c2;fill-opacity:0.5;"/>
    <path clip-path="url(#p861b3a9f4a)" d="M 254.456998 226.573744 
L 263.088448 228.119519 
L 268.072519 220.311528 
L 259.451399 218.787395 
z
" style="fill:#f39577;fill-opacity:0.5;"/>
    <path clip-path="url(#p861b3a9f4a)" d="M 213.609676 248.072762 
L 222.151264 250.004764 
L 227.220427 240.456922 
L 218.685203 238.54969 
z
" style="fill:#f4c5ad;fill-opacity:0.5;"/>
    <path clip-path="url(#p861b3a9f4a)" d="M 240.837918 233.289672 
L 249.439629 234.963851 
L 254.456998 226.573744 
L 245.864273 224.922334 
z
" style="fill:#f7a688;fill-opacity:0.5;"/>
    <path clip-path="url(#p861b3a9f4a)" d="M 227.220427 240.456922 
L 235.792177 242.259876 
L 240.837918 233.289672 
L 232.273832 231.51053 
z
" style="fill:#f7b599;fill-opacity:0.5;"/>
    <path clip-path="url(#p861b3a9f4a)" d="M 317.594058 205.303673 
L 326.385978 206.232612 
L 331.172331 200.748175 
L 322.396369 199.835493 
z
" style="fill:#d75445;fill-opacity:0.5;"/>
    <path clip-path="url(#p861b3a9f4a)" d="M 167.756044 285.404587 
L 176.207406 287.75247 
L 181.319326 275.899253 
L 172.869219 273.579446 
z
" style="fill:#bed2f6;fill-opacity:0.5;"/>
    <path clip-path="url(#p861b3a9f4a)" d="M 149.118353 308.306644 
L 157.536477 310.813749 
L 162.644321 297.817242 
L 154.224923 295.339647 
z
" style="fill:#8caffe;fill-opacity:0.5;"/>
    <path clip-path="url(#p861b3a9f4a)" d="M 303.99141 210.319826 
L 312.753625 211.375361 
L 317.594058 205.303673 
L 308.846361 204.265876 
z
" style="fill:#df634e;fill-opacity:0.5;"/>
    <path clip-path="url(#p861b3a9f4a)" d="M 181.319326 275.899253 
L 189.802555 278.117214 
L 194.909697 266.828121 
L 186.428952 264.637593 
z
" style="fill:#d1dae9;fill-opacity:0.5;"/>
    <path clip-path="url(#p861b3a9f4a)" d="M 353.57141 197.332496 
L 362.469258 197.900073 
L 367.11432 193.576446 
L 358.235477 193.021762 
z
" style="fill:#c53334;fill-opacity:0.5;"/>
    <path clip-path="url(#p861b3a9f4a)" d="M 290.369499 215.795539 
L 299.101686 216.97844 
L 303.99141 210.319826 
L 295.272322 209.156069 
z
" style="fill:#e67259;fill-opacity:0.5;"/>
    <path clip-path="url(#p861b3a9f4a)" d="M 194.909697 266.828121 
L 203.424679 268.916047 
L 208.522053 258.195347 
L 200.010808 256.134121 
z
" style="fill:#e1dad6;fill-opacity:0.5;"/>
    <path clip-path="url(#p861b3a9f4a)" d="M 162.644321 297.817242 
L 171.095606 300.194139 
L 176.207406 287.75247 
L 167.756044 285.404587 
z
" style="fill:#a6c4fe;fill-opacity:0.5;"/>
    <path clip-path="url(#p861b3a9f4a)" d="M 276.73346 221.729368 
L 285.43532 223.04031 
L 290.369499 215.795539 
L 281.679338 214.50507 
z
" style="fill:#ed8366;fill-opacity:0.5;"/>
    <path clip-path="url(#p861b3a9f4a)" d="M 144.019416 321.852397 
L 152.434947 324.389872 
L 157.536477 310.813749 
L 149.118353 308.306644 
z
" style="fill:#7093f3;fill-opacity:0.5;"/>
    <path clip-path="url(#p861b3a9f4a)" d="M 208.522053 258.195347 
L 217.068651 260.153227 
L 222.151264 250.004764 
L 213.609676 248.072762 
z
" style="fill:#eed0c0;fill-opacity:0.5;"/>
    <path clip-path="url(#p861b3a9f4a)" d="M 339.993608 201.551379 
L 348.861374 202.244365 
L 353.57141 197.332496 
L 344.721151 196.654074 
z
" style="fill:#cc403a;fill-opacity:0.5;"/>
    <path clip-path="url(#p861b3a9f4a)" d="M 263.088448 228.119519 
L 271.759708 229.559081 
L 276.73346 221.729368 
L 268.072519 220.311528 
z
" style="fill:#f29274;fill-opacity:0.5;"/>
    <path clip-path="url(#p861b3a9f4a)" d="M 222.151264 250.004764 
L 230.729319 251.832685 
L 235.792177 242.259876 
L 227.220427 240.456922 
z
" style="fill:#f5c4ac;fill-opacity:0.5;"/>
    <path clip-path="url(#p861b3a9f4a)" d="M 249.439629 234.963851 
L 258.080039 236.532514 
L 263.088448 228.119519 
L 254.456998 226.573744 
z
" style="fill:#f6a385;fill-opacity:0.5;"/>
    <path clip-path="url(#p861b3a9f4a)" d="M 235.792177 242.259876 
L 244.401511 243.958025 
L 249.439629 234.963851 
L 240.837918 233.289672 
z
" style="fill:#f7b497;fill-opacity:0.5;"/>
    <path clip-path="url(#p861b3a9f4a)" d="M 176.207406 287.75247 
L 184.691778 289.998857 
L 189.802555 278.117214 
L 181.319326 275.899253 
z
" style="fill:#bed2f6;fill-opacity:0.5;"/>
    <path clip-path="url(#p861b3a9f4a)" d="M 326.385978 206.232612 
L 335.223283 207.051979 
L 339.993608 201.551379 
L 331.172331 200.748175 
z
" style="fill:#d44e41;fill-opacity:0.5;"/>
    <path clip-path="url(#p861b3a9f4a)" d="M 138.930549 335.972128 
L 147.342172 338.540811 
L 152.434947 324.389872 
L 144.019416 321.852397 
z
" style="fill:#5572df;fill-opacity:0.5;"/>
    <path clip-path="url(#p861b3a9f4a)" d="M 157.536477 310.813749 
L 165.986355 313.220579 
L 171.095606 300.194139 
L 162.644321 297.817242 
z
" style="fill:#8caffe;fill-opacity:0.5;"/>
    <path clip-path="url(#p861b3a9f4a)" d="M 189.802555 278.117214 
L 198.319923 280.232887 
L 203.424679 268.916047 
L 194.909697 266.828121 
z
" style="fill:#d2dbe8;fill-opacity:0.5;"/>
    <path clip-path="url(#p861b3a9f4a)" d="M 312.753625 211.375361 
L 321.560115 212.32199 
L 326.385978 206.232612 
L 317.594058 205.303673 
z
" style="fill:#dc5d4a;fill-opacity:0.5;"/>
    <path clip-path="url(#p861b3a9f4a)" d="M 133.854188 350.660493 
L 142.260591 353.261199 
L 147.342172 338.540811 
L 138.930549 335.972128 
z
" style="fill:#3b4cc0;fill-opacity:0.5;"/>
    <path clip-path="url(#p861b3a9f4a)" d="M 362.469258 197.900073 
L 371.415906 198.35601 
L 376.041842 194.019676 
L 367.11432 193.576446 
z
" style="fill:#c0282f;fill-opacity:0.5;"/>
    <path clip-path="url(#p861b3a9f4a)" d="M 203.424679 268.916047 
L 211.974929 270.900905 
L 217.068651 260.153227 
L 208.522053 258.195347 
z
" style="fill:#e2dad5;fill-opacity:0.5;"/>
    <path clip-path="url(#p861b3a9f4a)" d="M 299.101686 216.97844 
L 307.877031 218.053115 
L 312.753625 211.375361 
L 303.99141 210.319826 
z
" style="fill:#e36c55;fill-opacity:0.5;"/>
    <path clip-path="url(#p861b3a9f4a)" d="M 171.095606 300.194139 
L 179.579781 302.469929 
L 184.691778 289.998857 
L 176.207406 287.75247 
z
" style="fill:#a7c5fe;fill-opacity:0.5;"/>
    <path clip-path="url(#p861b3a9f4a)" d="M 152.434947 324.389872 
L 160.88209 326.827534 
L 165.986355 313.220579 
L 157.536477 310.813749 
z
" style="fill:#7093f3;fill-opacity:0.5;"/>
    <path clip-path="url(#p861b3a9f4a)" d="M 217.068651 260.153227 
L 225.651647 262.007265 
L 230.729319 251.832685 
L 222.151264 250.004764 
z
" style="fill:#efcfbf;fill-opacity:0.5;"/>
    <path clip-path="url(#p861b3a9f4a)" d="M 285.43532 223.04031 
L 294.179219 224.243722 
L 299.101686 216.97844 
L 290.369499 215.795539 
z
" style="fill:#eb7d62;fill-opacity:0.5;"/>
    <path clip-path="url(#p861b3a9f4a)" d="M 230.729319 251.832685 
L 239.344905 253.556003 
L 244.401511 243.958025 
L 235.792177 242.259876 
z
" style="fill:#f5c1a9;fill-opacity:0.5;"/>
    <path clip-path="url(#p861b3a9f4a)" d="M 271.759708 229.559081 
L 280.471882 230.891824 
L 285.43532 223.04031 
L 276.73346 221.729368 
z
" style="fill:#f18f71;fill-opacity:0.5;"/>
    <path clip-path="url(#p861b3a9f4a)" d="M 348.861374 202.244365 
L 357.776828 202.826366 
L 362.469258 197.900073 
L 353.57141 197.332496 
z
" style="fill:#c73635;fill-opacity:0.5;"/>
    <path clip-path="url(#p861b3a9f4a)" d="M 244.401511 243.958025 
L 253.049505 245.55082 
L 258.080039 236.532514 
L 249.439629 234.963851 
z
" style="fill:#f7b194;fill-opacity:0.5;"/>
    <path clip-path="url(#p861b3a9f4a)" d="M 258.080039 236.532514 
L 266.760237 237.995084 
L 271.759708 229.559081 
L 263.088448 228.119519 
z
" style="fill:#f5a081;fill-opacity:0.5;"/>
    <path clip-path="url(#p861b3a9f4a)" d="M 184.691778 289.998857 
L 193.210182 292.14331 
L 198.319923 280.232887 
L 189.802555 278.117214 
z
" style="fill:#bfd3f6;fill-opacity:0.5;"/>
    <path clip-path="url(#p861b3a9f4a)" d="M 147.342172 338.540811 
L 155.785253 341.010182 
L 160.88209 326.827534 
L 152.434947 324.389872 
z
" style="fill:#5572df;fill-opacity:0.5;"/>
    <path clip-path="url(#p861b3a9f4a)" d="M 165.986355 313.220579 
L 174.468992 315.52673 
L 179.579781 302.469929 
L 171.095606 300.194139 
z
" style="fill:#8db0fe;fill-opacity:0.5;"/>
    <path clip-path="url(#p861b3a9f4a)" d="M 335.223283 207.051979 
L 344.107155 207.761035 
L 348.861374 202.244365 
L 339.993608 201.551379 
z
" style="fill:#d0473d;fill-opacity:0.5;"/>
    <path clip-path="url(#p861b3a9f4a)" d="M 198.319923 280.232887 
L 206.872465 282.245809 
L 211.974929 270.900905 
L 203.424679 268.916047 
z
" style="fill:#d3dbe7;fill-opacity:0.5;"/>
    <path clip-path="url(#p861b3a9f4a)" d="M 142.260591 353.261199 
L 150.69829 355.763132 
L 155.785253 341.010182 
L 147.342172 338.540811 
z
" style="fill:#3b4cc0;fill-opacity:0.5;"/>
    <path clip-path="url(#p861b3a9f4a)" d="M 321.560115 212.32199 
L 330.412045 213.158998 
L 335.223283 207.051979 
L 326.385978 206.232612 
z
" style="fill:#d85646;fill-opacity:0.5;"/>
    <path clip-path="url(#p861b3a9f4a)" d="M 211.974929 270.900905 
L 220.561495 272.7822 
L 225.651647 262.007265 
L 217.068651 260.153227 
z
" style="fill:#e3d9d3;fill-opacity:0.5;"/>
    <path clip-path="url(#p861b3a9f4a)" d="M 179.579781 302.469929 
L 188.097867 304.644179 
L 193.210182 292.14331 
L 184.691778 289.998857 
z
" style="fill:#a7c5fe;fill-opacity:0.5;"/>
    <path clip-path="url(#p861b3a9f4a)" d="M 160.88209 326.827534 
L 169.361849 329.164985 
L 174.468992 315.52673 
L 165.986355 313.220579 
z
" style="fill:#7295f4;fill-opacity:0.5;"/>
    <path clip-path="url(#p861b3a9f4a)" d="M 371.415906 198.35601 
L 380.412587 198.699484 
L 385.01927 194.35063 
L 376.041842 194.019676 
z
" style="fill:#ba162b;fill-opacity:0.5;"/>
    <path clip-path="url(#p861b3a9f4a)" d="M 307.877031 218.053115 
L 316.696686 219.018878 
L 321.560115 212.32199 
L 312.753625 211.375361 
z
" style="fill:#e16751;fill-opacity:0.5;"/>
    <path clip-path="url(#p861b3a9f4a)" d="M 225.651647 262.007265 
L 234.272105 263.756942 
L 239.344905 253.556003 
L 230.729319 251.832685 
z
" style="fill:#efcebd;fill-opacity:0.5;"/>
    <path clip-path="url(#p861b3a9f4a)" d="M 294.179219 224.243722 
L 302.966292 225.338946 
L 307.877031 218.053115 
L 299.101686 216.97844 
z
" style="fill:#e9785d;fill-opacity:0.5;"/>
    <path clip-path="url(#p861b3a9f4a)" d="M 239.344905 253.556003 
L 247.999096 255.174168 
L 253.049505 245.55082 
L 244.401511 243.958025 
z
" style="fill:#f6bfa6;fill-opacity:0.5;"/>
    <path clip-path="url(#p861b3a9f4a)" d="M 280.471882 230.891824 
L 289.226093 232.117118 
L 294.179219 224.243722 
L 285.43532 223.04031 
z
" style="fill:#f08b6e;fill-opacity:0.5;"/>
    <path clip-path="url(#p861b3a9f4a)" d="M 253.049505 245.55082 
L 261.73725 247.037685 
L 266.760237 237.995084 
L 258.080039 236.532514 
z
" style="fill:#f7af91;fill-opacity:0.5;"/>
    <path clip-path="url(#p861b3a9f4a)" d="M 193.210182 292.14331 
L 201.763651 294.18537 
L 206.872465 282.245809 
L 198.319923 280.232887 
z
" style="fill:#c0d4f5;fill-opacity:0.5;"/>
    <path clip-path="url(#p861b3a9f4a)" d="M 266.760237 237.995084 
L 275.48133 239.350958 
L 280.471882 230.891824 
L 271.759708 229.559081 
z
" style="fill:#f59d7e;fill-opacity:0.5;"/>
    <path clip-path="url(#p861b3a9f4a)" d="M 155.785253 341.010182 
L 164.260798 343.379848 
L 169.361849 329.164985 
L 160.88209 326.827534 
z
" style="fill:#5673e0;fill-opacity:0.5;"/>
    <path clip-path="url(#p861b3a9f4a)" d="M 357.776828 202.826366 
L 366.741185 203.296586 
L 371.415906 198.35601 
L 362.469258 197.900073 
z
" style="fill:#c12b30;fill-opacity:0.5;"/>
    <path clip-path="url(#p861b3a9f4a)" d="M 174.468992 315.52673 
L 182.985408 317.731775 
L 188.097867 304.644179 
L 179.579781 302.469929 
z
" style="fill:#8fb1fe;fill-opacity:0.5;"/>
    <path clip-path="url(#p861b3a9f4a)" d="M 206.872465 282.245809 
L 215.461228 284.15549 
L 220.561495 272.7822 
L 211.974929 270.900905 
z
" style="fill:#d4dbe6;fill-opacity:0.5;"/>
    <path clip-path="url(#p861b3a9f4a)" d="M 150.69829 355.763132 
L 159.168288 358.165904 
L 164.260798 343.379848 
L 155.785253 341.010182 
z
" style="fill:#3b4cc0;fill-opacity:0.5;"/>
    <path clip-path="url(#p861b3a9f4a)" d="M 344.107155 207.761035 
L 353.038796 208.359011 
L 357.776828 202.826366 
L 348.861374 202.244365 
z
" style="fill:#cb3e38;fill-opacity:0.5;"/>
    <path clip-path="url(#p861b3a9f4a)" d="M 220.561495 272.7822 
L 229.185443 274.559417 
L 234.272105 263.756942 
L 225.651647 262.007265 
z
" style="fill:#e5d8d1;fill-opacity:0.5;"/>
    <path clip-path="url(#p861b3a9f4a)" d="M 188.097867 304.644179 
L 196.650899 306.716433 
L 201.763651 294.18537 
L 193.210182 292.14331 
z
" style="fill:#a9c6fd;fill-opacity:0.5;"/>
    <path clip-path="url(#p861b3a9f4a)" d="M 169.361849 329.164985 
L 177.875245 331.401803 
L 182.985408 317.731775 
L 174.468992 315.52673 
z
" style="fill:#7396f5;fill-opacity:0.5;"/>
    <path clip-path="url(#p861b3a9f4a)" d="M 330.412045 213.158998 
L 339.310603 213.885644 
L 344.107155 207.761035 
L 335.223283 207.051979 
z
" style="fill:#d44e41;fill-opacity:0.5;"/>
    <path clip-path="url(#p861b3a9f4a)" d="M 234.272105 263.756942 
L 242.931104 265.401711 
L 247.999096 255.174168 
L 239.344905 253.556003 
z
" style="fill:#f1cdba;fill-opacity:0.5;"/>
    <path clip-path="url(#p861b3a9f4a)" d="M 316.696686 219.018878 
L 325.561823 219.875015 
L 330.412045 213.158998 
L 321.560115 212.32199 
z
" style="fill:#de614d;fill-opacity:0.5;"/>
    <path clip-path="url(#p861b3a9f4a)" d="M 380.412587 198.699484 
L 389.460555 198.929641 
L 394.047851 194.56846 
L 385.01927 194.35063 
z
" style="fill:#b40426;fill-opacity:0.5;"/>
    <path clip-path="url(#p861b3a9f4a)" d="M 247.999096 255.174168 
L 256.692989 256.68661 
L 261.73725 247.037685 
L 253.049505 245.55082 
z
" style="fill:#f6bda2;fill-opacity:0.5;"/>
    <path clip-path="url(#p861b3a9f4a)" d="M 302.966292 225.338946 
L 311.797696 226.325296 
L 316.696686 219.018878 
L 307.877031 218.053115 
z
" style="fill:#e67259;fill-opacity:0.5;"/>
    <path clip-path="url(#p861b3a9f4a)" d="M 201.763651 294.18537 
L 210.353235 296.124551 
L 215.461228 284.15549 
L 206.872465 282.245809 
z
" style="fill:#c1d4f4;fill-opacity:0.5;"/>
    <path clip-path="url(#p861b3a9f4a)" d="M 164.260798 343.379848 
L 172.769825 345.649393 
L 177.875245 331.401803 
L 169.361849 329.164985 
z
" style="fill:#5673e0;fill-opacity:0.5;"/>
    <path clip-path="url(#p861b3a9f4a)" d="M 261.73725 247.037685 
L 270.465856 248.418018 
L 275.48133 239.350958 
L 266.760237 237.995084 
z
" style="fill:#f7ac8e;fill-opacity:0.5;"/>
    <path clip-path="url(#p861b3a9f4a)" d="M 289.226093 232.117118 
L 298.02348 233.234304 
L 302.966292 225.338946 
L 294.179219 224.243722 
z
" style="fill:#ee8669;fill-opacity:0.5;"/>
    <path clip-path="url(#p861b3a9f4a)" d="M 275.48133 239.350958 
L 284.244442 240.599506 
L 289.226093 232.117118 
L 280.471882 230.891824 
z
" style="fill:#f4987a;fill-opacity:0.5;"/>
    <path clip-path="url(#p861b3a9f4a)" d="M 182.985408 317.731775 
L 191.536639 319.835264 
L 196.650899 306.716433 
L 188.097867 304.644179 
z
" style="fill:#90b2fe;fill-opacity:0.5;"/>
    <path clip-path="url(#p861b3a9f4a)" d="M 366.741185 203.296586 
L 375.755686 203.654199 
L 380.412587 198.699484 
L 371.415906 198.35601 
z
" style="fill:#bb1b2c;fill-opacity:0.5;"/>
    <path clip-path="url(#p861b3a9f4a)" d="M 159.168288 358.165904 
L 167.671602 360.469107 
L 172.769825 345.649393 
L 164.260798 343.379848 
z
" style="fill:#3c4ec2;fill-opacity:0.5;"/>
    <path clip-path="url(#p861b3a9f4a)" d="M 215.461228 284.15549 
L 224.087279 285.961418 
L 229.185443 274.559417 
L 220.561495 272.7822 
z
" style="fill:#d6dce4;fill-opacity:0.5;"/>
    <path clip-path="url(#p861b3a9f4a)" d="M 353.038796 208.359011 
L 362.019429 208.845108 
L 366.741185 203.296586 
L 357.776828 202.826366 
z
" style="fill:#c53334;fill-opacity:0.5;"/>
    <path clip-path="url(#p861b3a9f4a)" d="M 177.875245 331.401803 
L 186.423311 333.537544 
L 191.536639 319.835264 
L 182.985408 317.731775 
z
" style="fill:#7597f6;fill-opacity:0.5;"/>
    <path clip-path="url(#p861b3a9f4a)" d="M 196.650899 306.716433 
L 205.239927 308.686214 
L 210.353235 296.124551 
L 201.763651 294.18537 
z
" style="fill:#abc8fd;fill-opacity:0.5;"/>
    <path clip-path="url(#p861b3a9f4a)" d="M 229.185443 274.559417 
L 237.847853 276.232015 
L 242.931104 265.401711 
L 234.272105 263.756942 
z
" style="fill:#e6d7cf;fill-opacity:0.5;"/>
    <path clip-path="url(#p861b3a9f4a)" d="M 339.310603 213.885644 
L 348.256996 214.501159 
L 353.038796 208.359011 
L 344.107155 207.761035 
z
" style="fill:#d0473d;fill-opacity:0.5;"/>
    <path clip-path="url(#p861b3a9f4a)" d="M 242.931104 265.401711 
L 251.62974 266.941005 
L 256.692989 256.68661 
L 247.999096 255.174168 
z
" style="fill:#f2cbb7;fill-opacity:0.5;"/>
    <path clip-path="url(#p861b3a9f4a)" d="M 325.561823 219.875015 
L 334.473633 220.620784 
L 339.310603 213.885644 
L 330.412045 213.158998 
z
" style="fill:#d95847;fill-opacity:0.5;"/>
    <path clip-path="url(#p861b3a9f4a)" d="M 172.769825 345.649393 
L 181.313369 347.81838 
L 186.423311 333.537544 
L 177.875245 331.401803 
z
" style="fill:#5875e1;fill-opacity:0.5;"/>
    <path clip-path="url(#p861b3a9f4a)" d="M 256.692989 256.68661 
L 265.427696 258.092727 
L 270.465856 248.418018 
L 261.73725 247.037685 
z
" style="fill:#f7ba9f;fill-opacity:0.5;"/>
    <path clip-path="url(#p861b3a9f4a)" d="M 210.353235 296.124551 
L 218.98 297.960348 
L 224.087279 285.961418 
L 215.461228 284.15549 
z
" style="fill:#c4d5f3;fill-opacity:0.5;"/>
    <path clip-path="url(#p861b3a9f4a)" d="M 311.797696 226.325296 
L 320.674607 227.202058 
L 325.561823 219.875015 
L 316.696686 219.018878 
z
" style="fill:#e36c55;fill-opacity:0.5;"/>
    <path clip-path="url(#p861b3a9f4a)" d="M 270.465856 248.418018 
L 279.236451 249.691192 
L 284.244442 240.599506 
L 275.48133 239.350958 
z
" style="fill:#f7a889;fill-opacity:0.5;"/>
    <path clip-path="url(#p861b3a9f4a)" d="M 191.536639 319.835264 
L 200.123734 321.836722 
L 205.239927 308.686214 
L 196.650899 306.716433 
z
" style="fill:#92b4fe;fill-opacity:0.5;"/>
    <path clip-path="url(#p861b3a9f4a)" d="M 298.02348 233.234304 
L 306.865203 234.242699 
L 311.797696 226.325296 
L 302.966292 225.338946 
z
" style="fill:#ec8165;fill-opacity:0.5;"/>
    <path clip-path="url(#p861b3a9f4a)" d="M 284.244442 240.599506 
L 293.050719 241.740072 
L 298.02348 233.234304 
L 289.226093 232.117118 
z
" style="fill:#f39577;fill-opacity:0.5;"/>
    <path clip-path="url(#p861b3a9f4a)" d="M 167.671602 360.469107 
L 176.209267 362.672309 
L 181.313369 347.81838 
L 172.769825 345.649393 
z
" style="fill:#3d50c3;fill-opacity:0.5;"/>
    <path clip-path="url(#p861b3a9f4a)" d="M 224.087279 285.961418 
L 232.7517 287.663057 
L 237.847853 276.232015 
L 229.185443 274.559417 
z
" style="fill:#d8dce2;fill-opacity:0.5;"/>
    <path clip-path="url(#p861b3a9f4a)" d="M 375.755686 203.654199 
L 384.821593 203.898349 
L 389.460555 198.929641 
L 380.412587 198.699484 
z
" style="fill:#b50927;fill-opacity:0.5;"/>
    <path clip-path="url(#p861b3a9f4a)" d="M 186.423311 333.537544 
L 195.007099 335.571739 
L 200.123734 321.836722 
L 191.536639 319.835264 
z
" style="fill:#7699f6;fill-opacity:0.5;"/>
    <path clip-path="url(#p861b3a9f4a)" d="M 205.239927 308.686214 
L 213.866018 310.553018 
L 218.98 297.960348 
L 210.353235 296.124551 
z
" style="fill:#adc9fd;fill-opacity:0.5;"/>
    <path clip-path="url(#p861b3a9f4a)" d="M 237.847853 276.232015 
L 246.549823 277.799428 
L 251.62974 266.941005 
L 242.931104 265.401711 
z
" style="fill:#e8d6cc;fill-opacity:0.5;"/>
    <path clip-path="url(#p861b3a9f4a)" d="M 362.019429 208.845108 
L 371.0503 209.218499 
L 375.755686 203.654199 
L 366.741185 203.296586 
z
" style="fill:#c0282f;fill-opacity:0.5;"/>
    <path clip-path="url(#p861b3a9f4a)" d="M 251.62974 266.941005 
L 260.369129 268.374227 
L 265.427696 258.092727 
L 256.692989 256.68661 
z
" style="fill:#f2c9b4;fill-opacity:0.5;"/>
    <path clip-path="url(#p861b3a9f4a)" d="M 348.256996 214.501159 
L 357.252453 215.004743 
L 362.019429 208.845108 
L 353.038796 208.359011 
z
" style="fill:#cb3e38;fill-opacity:0.5;"/>
    <path clip-path="url(#p861b3a9f4a)" d="M 181.313369 347.81838 
L 189.892478 349.886347 
L 195.007099 335.571739 
L 186.423311 333.537544 
z
" style="fill:#5a78e4;fill-opacity:0.5;"/>
    <path clip-path="url(#p861b3a9f4a)" d="M 218.98 297.960348 
L 227.645031 299.692226 
L 232.7517 287.663057 
L 224.087279 285.961418 
z
" style="fill:#c5d6f2;fill-opacity:0.5;"/>
    <path clip-path="url(#p861b3a9f4a)" d="M 265.427696 258.092727 
L 274.204347 259.391898 
L 279.236451 249.691192 
L 270.465856 248.418018 
z
" style="fill:#f7b89c;fill-opacity:0.5;"/>
    <path clip-path="url(#p861b3a9f4a)" d="M 334.473633 220.620784 
L 343.433328 221.255415 
L 348.256996 214.501159 
L 339.310603 213.885644 
z
" style="fill:#d65244;fill-opacity:0.5;"/>
    <path clip-path="url(#p861b3a9f4a)" d="M 200.123734 321.836722 
L 208.747761 323.735654 
L 213.866018 310.553018 
L 205.239927 308.686214 
z
" style="fill:#93b5fe;fill-opacity:0.5;"/>
    <path clip-path="url(#p861b3a9f4a)" d="M 279.236451 249.691192 
L 288.050182 250.856555 
L 293.050719 241.740072 
L 284.244442 240.599506 
z
" style="fill:#f6a586;fill-opacity:0.5;"/>
    <path clip-path="url(#p861b3a9f4a)" d="M 320.674607 227.202058 
L 329.59822 227.968492 
L 334.473633 220.620784 
L 325.561823 219.875015 
z
" style="fill:#e16751;fill-opacity:0.5;"/>
    <path clip-path="url(#p861b3a9f4a)" d="M 293.050719 241.740072 
L 301.901322 242.771974 
L 306.865203 234.242699 
L 298.02348 233.234304 
z
" style="fill:#f29072;fill-opacity:0.5;"/>
    <path clip-path="url(#p861b3a9f4a)" d="M 306.865203 234.242699 
L 315.752444 235.14159 
L 320.674607 227.202058 
L 311.797696 226.325296 
z
" style="fill:#ea7b60;fill-opacity:0.5;"/>
    <path clip-path="url(#p861b3a9f4a)" d="M 176.209267 362.672309 
L 184.782331 364.775055 
L 189.892478 349.886347 
L 181.313369 347.81838 
z
" style="fill:#3e51c5;fill-opacity:0.5;"/>
    <path clip-path="url(#p861b3a9f4a)" d="M 232.7517 287.663057 
L 241.455591 289.259845 
L 246.549823 277.799428 
L 237.847853 276.232015 
z
" style="fill:#dadce0;fill-opacity:0.5;"/>
    <path clip-path="url(#p861b3a9f4a)" d="M 195.007099 335.571739 
L 203.627676 337.503898 
L 208.747761 323.735654 
L 200.123734 321.836722 
z
" style="fill:#779af7;fill-opacity:0.5;"/>
    <path clip-path="url(#p861b3a9f4a)" d="M 213.866018 310.553018 
L 222.530255 312.316317 
L 227.645031 299.692226 
L 218.98 297.960348 
z
" style="fill:#afcafc;fill-opacity:0.5;"/>
    <path clip-path="url(#p861b3a9f4a)" d="M 246.549823 277.799428 
L 255.29247 279.261064 
L 260.369129 268.374227 
L 251.62974 266.941005 
z
" style="fill:#ead4c8;fill-opacity:0.5;"/>
    <path clip-path="url(#p861b3a9f4a)" d="M 371.0503 209.218499 
L 380.132677 209.478325 
L 384.821593 203.898349 
L 375.755686 203.654199 
z
" style="fill:#b8122a;fill-opacity:0.5;"/>
    <path clip-path="url(#p861b3a9f4a)" d="M 260.369129 268.374227 
L 269.150403 269.700756 
L 274.204347 259.391898 
L 265.427696 258.092727 
z
" style="fill:#f4c6af;fill-opacity:0.5;"/>
    <path clip-path="url(#p861b3a9f4a)" d="M 189.892478 349.886347 
L 198.50822 351.852809 
L 203.627676 337.503898 
L 195.007099 335.571739 
z
" style="fill:#5b7ae5;fill-opacity:0.5;"/>
    <path clip-path="url(#p861b3a9f4a)" d="M 227.645031 299.692226 
L 236.349427 301.31963 
L 241.455591 289.259845 
L 232.7517 287.663057 
z
" style="fill:#c7d7f0;fill-opacity:0.5;"/>
    <path clip-path="url(#p861b3a9f4a)" d="M 357.252453 215.004743 
L 366.298227 215.395567 
L 371.0503 209.218499 
L 362.019429 208.845108 
z
" style="fill:#c43032;fill-opacity:0.5;"/>
    <path clip-path="url(#p861b3a9f4a)" d="M 274.204347 259.391898 
L 283.024093 260.583469 
L 288.050182 250.856555 
L 279.236451 249.691192 
z
" style="fill:#f7b497;fill-opacity:0.5;"/>
    <path clip-path="url(#p861b3a9f4a)" d="M 208.747761 323.735654 
L 217.409804 325.531538 
L 222.530255 312.316317 
L 213.866018 310.553018 
z
" style="fill:#96b7ff;fill-opacity:0.5;"/>
    <path clip-path="url(#p861b3a9f4a)" d="M 343.433328 221.255415 
L 352.442143 221.778109 
L 357.252453 215.004743 
L 348.256996 214.501159 
z
" style="fill:#d1493f;fill-opacity:0.5;"/>
    <path clip-path="url(#p861b3a9f4a)" d="M 288.050182 250.856555 
L 296.908217 251.913423 
L 301.901322 242.771974 
L 293.050719 241.740072 
z
" style="fill:#f5a081;fill-opacity:0.5;"/>
    <path clip-path="url(#p861b3a9f4a)" d="M 184.782331 364.775055 
L 193.391859 366.776868 
L 198.50822 351.852809 
L 189.892478 349.886347 
z
" style="fill:#4055c8;fill-opacity:0.5;"/>
    <path clip-path="url(#p861b3a9f4a)" d="M 329.59822 227.968492 
L 338.569754 228.623827 
L 343.433328 221.255415 
L 334.473633 220.620784 
z
" style="fill:#dd5f4b;fill-opacity:0.5;"/>
    <path clip-path="url(#p861b3a9f4a)" d="M 301.901322 242.771974 
L 310.797437 243.6945 
L 315.752444 235.14159 
L 306.865203 234.242699 
z
" style="fill:#f08a6c;fill-opacity:0.5;"/>
    <path clip-path="url(#p861b3a9f4a)" d="M 315.752444 235.14159 
L 324.686401 235.930237 
L 329.59822 227.968492 
L 320.674607 227.202058 
z
" style="fill:#e7745b;fill-opacity:0.5;"/>
    <path clip-path="url(#p861b3a9f4a)" d="M 241.455591 289.259845 
L 250.200069 290.751194 
L 255.29247 279.261064 
L 246.549823 277.799428 
z
" style="fill:#dcdddd;fill-opacity:0.5;"/>
    <path clip-path="url(#p861b3a9f4a)" d="M 203.627676 337.503898 
L 212.286124 339.333506 
L 217.409804 325.531538 
L 208.747761 323.735654 
z
" style="fill:#7a9df8;fill-opacity:0.5;"/>
    <path clip-path="url(#p861b3a9f4a)" d="M 222.530255 312.316317 
L 231.233741 313.975561 
L 236.349427 301.31963 
L 227.645031 299.692226 
z
" style="fill:#b2ccfb;fill-opacity:0.5;"/>
    <path clip-path="url(#p861b3a9f4a)" d="M 255.29247 279.261064 
L 264.076929 280.616306 
L 269.150403 269.700756 
L 260.369129 268.374227 
z
" style="fill:#ecd3c5;fill-opacity:0.5;"/>
    <path clip-path="url(#p861b3a9f4a)" d="M 198.50822 351.852809 
L 207.161677 353.717256 
L 212.286124 339.333506 
L 203.627676 337.503898 
z
" style="fill:#5e7de7;fill-opacity:0.5;"/>
    <path clip-path="url(#p861b3a9f4a)" d="M 269.150403 269.700756 
L 277.974714 270.919944 
L 283.024093 260.583469 
L 274.204347 259.391898 
z
" style="fill:#f5c2aa;fill-opacity:0.5;"/>
    <path clip-path="url(#p861b3a9f4a)" d="M 236.349427 301.31963 
L 245.094308 302.841976 
L 250.200069 290.751194 
L 241.455591 289.259845 
z
" style="fill:#cbd8ee;fill-opacity:0.5;"/>
    <path clip-path="url(#p861b3a9f4a)" d="M 217.409804 325.531538 
L 226.110963 327.223826 
L 231.233741 313.975561 
L 222.530255 312.316317 
z
" style="fill:#98b9ff;fill-opacity:0.5;"/>
    <path clip-path="url(#p861b3a9f4a)" d="M 283.024093 260.583469 
L 291.888102 261.666763 
L 296.908217 251.913423 
L 288.050182 250.856555 
z
" style="fill:#f7b093;fill-opacity:0.5;"/>
    <path clip-path="url(#p861b3a9f4a)" d="M 366.298227 215.395567 
L 375.39559 215.672771 
L 380.132677 209.478325 
L 371.0503 209.218499 
z
" style="fill:#be242e;fill-opacity:0.5;"/>
    <path clip-path="url(#p861b3a9f4a)" d="M 193.391859 366.776868 
L 202.038934 368.677244 
L 207.161677 353.717256 
L 198.50822 351.852809 
z
" style="fill:#4257c9;fill-opacity:0.5;"/>
    <path clip-path="url(#p861b3a9f4a)" d="M 296.908217 251.913423 
L 305.811741 252.86109 
L 310.797437 243.6945 
L 301.901322 242.771974 
z
" style="fill:#f49a7b;fill-opacity:0.5;"/>
    <path clip-path="url(#p861b3a9f4a)" d="M 352.442143 221.778109 
L 361.501336 222.188036 
L 366.298227 215.395567 
L 357.252453 215.004743 
z
" style="fill:#cb3e38;fill-opacity:0.5;"/>
    <path clip-path="url(#p861b3a9f4a)" d="M 310.797437 243.6945 
L 319.740266 244.506911 
L 324.686401 235.930237 
L 315.752444 235.14159 
z
" style="fill:#ee8468;fill-opacity:0.5;"/>
    <path clip-path="url(#p861b3a9f4a)" d="M 338.569754 228.623827 
L 347.590447 229.167264 
L 352.442143 221.778109 
L 343.433328 221.255415 
z
" style="fill:#d85646;fill-opacity:0.5;"/>
    <path clip-path="url(#p861b3a9f4a)" d="M 250.200069 290.751194 
L 258.986271 292.136491 
L 264.076929 280.616306 
L 255.29247 279.261064 
z
" style="fill:#dedcdb;fill-opacity:0.5;"/>
    <path clip-path="url(#p861b3a9f4a)" d="M 324.686401 235.930237 
L 333.668296 236.60787 
L 338.569754 228.623827 
L 329.59822 227.968492 
z
" style="fill:#e36c55;fill-opacity:0.5;"/>
    <path clip-path="url(#p861b3a9f4a)" d="M 212.286124 339.333506 
L 220.983545 341.060022 
L 226.110963 327.223826 
L 217.409804 325.531538 
z
" style="fill:#7da0f9;fill-opacity:0.5;"/>
    <path clip-path="url(#p861b3a9f4a)" d="M 231.233741 313.975561 
L 239.977594 315.530172 
L 245.094308 302.841976 
L 236.349427 301.31963 
z
" style="fill:#b5cdfa;fill-opacity:0.5;"/>
    <path clip-path="url(#p861b3a9f4a)" d="M 264.076929 280.616306 
L 272.904353 281.864509 
L 277.974714 270.919944 
L 269.150403 269.700756 
z
" style="fill:#eed0c0;fill-opacity:0.5;"/>
    <path clip-path="url(#p861b3a9f4a)" d="M 207.161677 353.717256 
L 215.853949 355.479157 
L 220.983545 341.060022 
L 212.286124 339.333506 
z
" style="fill:#6180e9;fill-opacity:0.5;"/>
    <path clip-path="url(#p861b3a9f4a)" d="M 277.974714 270.919944 
L 286.843234 272.031116 
L 291.888102 261.666763 
L 283.024093 260.583469 
z
" style="fill:#f6bfa6;fill-opacity:0.5;"/>
    <path clip-path="url(#p861b3a9f4a)" d="M 245.094308 302.841976 
L 253.88081 304.258656 
L 258.986271 292.136491 
L 250.200069 290.751194 
z
" style="fill:#cdd9ec;fill-opacity:0.5;"/>
    <path clip-path="url(#p861b3a9f4a)" d="M 226.110963 327.223826 
L 234.852359 328.811949 
L 239.977594 315.530172 
L 231.233741 313.975561 
z
" style="fill:#9bbcff;fill-opacity:0.5;"/>
    <path clip-path="url(#p861b3a9f4a)" d="M 291.888102 261.666763 
L 300.797563 262.641075 
L 305.811741 252.86109 
L 296.908217 251.913423 
z
" style="fill:#f7ac8e;fill-opacity:0.5;"/>
    <path clip-path="url(#p861b3a9f4a)" d="M 202.038934 368.677244 
L 210.724653 370.475659 
L 215.853949 355.479157 
L 207.161677 353.717256 
z
" style="fill:#445acc;fill-opacity:0.5;"/>
    <path clip-path="url(#p861b3a9f4a)" d="M 305.811741 252.86109 
L 314.761963 253.698818 
L 319.740266 244.506911 
L 310.797437 243.6945 
z
" style="fill:#f39577;fill-opacity:0.5;"/>
    <path clip-path="url(#p861b3a9f4a)" d="M 258.986271 292.136491 
L 267.815352 293.415096 
L 272.904353 281.864509 
L 264.076929 280.616306 
z
" style="fill:#e1dad6;fill-opacity:0.5;"/>
    <path clip-path="url(#p861b3a9f4a)" d="M 361.501336 222.188036 
L 370.612185 222.484334 
L 375.39559 215.672771 
L 366.298227 215.395567 
z
" style="fill:#c53334;fill-opacity:0.5;"/>
    <path clip-path="url(#p861b3a9f4a)" d="M 319.740266 244.506911 
L 328.731036 245.208439 
L 333.668296 236.60787 
L 324.686401 235.930237 
z
" style="fill:#eb7d62;fill-opacity:0.5;"/>
    <path clip-path="url(#p861b3a9f4a)" d="M 347.590447 229.167264 
L 356.661561 229.597973 
L 361.501336 222.188036 
L 352.442143 221.778109 
z
" style="fill:#d44e41;fill-opacity:0.5;"/>
    <path clip-path="url(#p861b3a9f4a)" d="M 333.668296 236.60787 
L 342.699374 237.17369 
L 347.590447 229.167264 
L 338.569754 228.623827 
z
" style="fill:#e0654f;fill-opacity:0.5;"/>
    <path clip-path="url(#p861b3a9f4a)" d="M 220.983545 341.060022 
L 229.721057 342.68288 
L 234.852359 328.811949 
L 226.110963 327.223826 
z
" style="fill:#80a3fa;fill-opacity:0.5;"/>
    <path clip-path="url(#p861b3a9f4a)" d="M 239.977594 315.530172 
L 248.762951 316.979546 
L 253.88081 304.258656 
L 245.094308 302.841976 
z
" style="fill:#b9d0f9;fill-opacity:0.5;"/>
    <path clip-path="url(#p861b3a9f4a)" d="M 272.904353 281.864509 
L 281.775916 283.005002 
L 286.843234 272.031116 
L 277.974714 270.919944 
z
" style="fill:#f0cdbb;fill-opacity:0.5;"/>
    <path clip-path="url(#p861b3a9f4a)" d="M 215.853949 355.479157 
L 224.586155 357.137951 
L 229.721057 342.68288 
L 220.983545 341.060022 
z
" style="fill:#6384eb;fill-opacity:0.5;"/>
    <path clip-path="url(#p861b3a9f4a)" d="M 286.843234 272.031116 
L 295.757155 273.033569 
L 300.797563 262.641075 
L 291.888102 261.666763 
z
" style="fill:#f7bca1;fill-opacity:0.5;"/>
    <path clip-path="url(#p861b3a9f4a)" d="M 253.88081 304.258656 
L 262.710089 305.569036 
L 267.815352 293.415096 
L 258.986271 292.136491 
z
" style="fill:#d1dae9;fill-opacity:0.5;"/>
    <path clip-path="url(#p861b3a9f4a)" d="M 234.852359 328.811949 
L 243.635129 330.295308 
L 248.762951 316.979546 
L 239.977594 315.530172 
z
" style="fill:#9fbfff;fill-opacity:0.5;"/>
    <path clip-path="url(#p861b3a9f4a)" d="M 210.724653 370.475659 
L 219.450134 372.171561 
L 224.586155 357.137951 
L 215.853949 355.479157 
z
" style="fill:#485fd1;fill-opacity:0.5;"/>
    <path clip-path="url(#p861b3a9f4a)" d="M 300.797563 262.641075 
L 309.753688 263.505668 
L 314.761963 253.698818 
L 305.811741 252.86109 
z
" style="fill:#f7a688;fill-opacity:0.5;"/>
    <path clip-path="url(#p861b3a9f4a)" d="M 314.761963 253.698818 
L 323.76011 254.42584 
L 328.731036 245.208439 
L 319.740266 244.506911 
z
" style="fill:#f18f71;fill-opacity:0.5;"/>
    <path clip-path="url(#p861b3a9f4a)" d="M 267.815352 293.415096 
L 276.688486 294.586343 
L 281.775916 283.005002 
L 272.904353 281.864509 
z
" style="fill:#e4d9d2;fill-opacity:0.5;"/>
    <path clip-path="url(#p861b3a9f4a)" d="M 328.731036 245.208439 
L 337.770994 245.798288 
L 342.699374 237.17369 
L 333.668296 236.60787 
z
" style="fill:#e8765c;fill-opacity:0.5;"/>
    <path clip-path="url(#p861b3a9f4a)" d="M 229.721057 342.68288 
L 238.499799 344.201491 
L 243.635129 330.295308 
L 234.852359 328.811949 
z
" style="fill:#84a7fc;fill-opacity:0.5;"/>
    <path clip-path="url(#p861b3a9f4a)" d="M 342.699374 237.17369 
L 351.780899 237.626869 
L 356.661561 229.597973 
L 347.590447 229.167264 
z
" style="fill:#dc5d4a;fill-opacity:0.5;"/>
    <path clip-path="url(#p861b3a9f4a)" d="M 356.661561 229.597973 
L 365.784381 229.915093 
L 370.612185 222.484334 
L 361.501336 222.188036 
z
" style="fill:#cd423b;fill-opacity:0.5;"/>
    <path clip-path="url(#p861b3a9f4a)" d="M 248.762951 316.979546 
L 257.59097 318.323055 
L 262.710089 305.569036 
L 253.88081 304.258656 
z
" style="fill:#bbd1f8;fill-opacity:0.5;"/>
    <path clip-path="url(#p861b3a9f4a)" d="M 281.775916 283.005002 
L 290.692811 284.037087 
L 295.757155 273.033569 
L 286.843234 272.031116 
z
" style="fill:#f2cbb7;fill-opacity:0.5;"/>
    <path clip-path="url(#p861b3a9f4a)" d="M 224.586155 357.137951 
L 233.359432 358.693056 
L 238.499799 344.201491 
L 229.721057 342.68288 
z
" style="fill:#6788ee;fill-opacity:0.5;"/>
    <path clip-path="url(#p861b3a9f4a)" d="M 295.757155 273.033569 
L 304.717688 273.926573 
L 309.753688 263.505668 
L 300.797563 262.641075 
z
" style="fill:#f7b89c;fill-opacity:0.5;"/>
    <path clip-path="url(#p861b3a9f4a)" d="M 262.710089 305.569036 
L 271.583321 306.772453 
L 276.688486 294.586343 
L 267.815352 293.415096 
z
" style="fill:#d4dbe6;fill-opacity:0.5;"/>
    <path clip-path="url(#p861b3a9f4a)" d="M 243.635129 330.295308 
L 252.46043 331.67328 
L 257.59097 318.323055 
L 248.762951 316.979546 
z
" style="fill:#a3c2fe;fill-opacity:0.5;"/>
    <path clip-path="url(#p861b3a9f4a)" d="M 219.450134 372.171561 
L 228.216514 373.764374 
L 233.359432 358.693056 
L 224.586155 357.137951 
z
" style="fill:#4a63d3;fill-opacity:0.5;"/>
    <path clip-path="url(#p861b3a9f4a)" d="M 309.753688 263.505668 
L 318.757708 264.259781 
L 323.76011 254.42584 
L 314.761963 253.698818 
z
" style="fill:#f5a081;fill-opacity:0.5;"/>
    <path clip-path="url(#p861b3a9f4a)" d="M 276.688486 294.586343 
L 285.606869 295.649537 
L 290.692811 284.037087 
L 281.775916 283.005002 
z
" style="fill:#e7d7ce;fill-opacity:0.5;"/>
    <path clip-path="url(#p861b3a9f4a)" d="M 323.76011 254.42584 
L 332.807435 255.041363 
L 337.770994 245.798288 
L 328.731036 245.208439 
z
" style="fill:#ef886b;fill-opacity:0.5;"/>
    <path clip-path="url(#p861b3a9f4a)" d="M 238.499799 344.201491 
L 247.320926 345.615238 
L 252.46043 331.67328 
L 243.635129 330.295308 
z
" style="fill:#88abfd;fill-opacity:0.5;"/>
    <path clip-path="url(#p861b3a9f4a)" d="M 337.770994 245.798288 
L 346.86141 246.275628 
L 351.780899 237.626869 
L 342.699374 237.17369 
z
" style="fill:#e46e56;fill-opacity:0.5;"/>
    <path clip-path="url(#p861b3a9f4a)" d="M 257.59097 318.323055 
L 266.462826 319.560042 
L 271.583321 306.772453 
L 262.710089 305.569036 
z
" style="fill:#bfd3f6;fill-opacity:0.5;"/>
    <path clip-path="url(#p861b3a9f4a)" d="M 351.780899 237.626869 
L 360.914163 237.966547 
L 365.784381 229.915093 
L 356.661561 229.597973 
z
" style="fill:#d75445;fill-opacity:0.5;"/>
    <path clip-path="url(#p861b3a9f4a)" d="M 290.692811 284.037087 
L 299.656253 284.960037 
L 304.717688 273.926573 
L 295.757155 273.033569 
z
" style="fill:#f3c7b1;fill-opacity:0.5;"/>
    <path clip-path="url(#p861b3a9f4a)" d="M 233.359432 358.693056 
L 242.174934 360.143863 
L 247.320926 345.615238 
L 238.499799 344.201491 
z
" style="fill:#6a8bef;fill-opacity:0.5;"/>
    <path clip-path="url(#p861b3a9f4a)" d="M 271.583321 306.772453 
L 280.501702 307.868218 
L 285.606869 295.649537 
L 276.688486 294.586343 
z
" style="fill:#d7dce3;fill-opacity:0.5;"/>
    <path clip-path="url(#p861b3a9f4a)" d="M 304.717688 273.926573 
L 313.726069 274.709368 
L 318.757708 264.259781 
L 309.753688 263.505668 
z
" style="fill:#f7b396;fill-opacity:0.5;"/>
    <path clip-path="url(#p861b3a9f4a)" d="M 252.46043 331.67328 
L 261.329437 332.945215 
L 266.462826 319.560042 
L 257.59097 318.323055 
z
" style="fill:#a7c5fe;fill-opacity:0.5;"/>
    <path clip-path="url(#p861b3a9f4a)" d="M 228.216514 373.764374 
L 237.024945 375.253497 
L 242.174934 360.143863 
L 233.359432 358.693056 
z
" style="fill:#4e68d8;fill-opacity:0.5;"/>
    <path clip-path="url(#p861b3a9f4a)" d="M 318.757708 264.259781 
L 327.810877 264.902621 
L 332.807435 255.041363 
L 323.76011 254.42584 
z
" style="fill:#f49a7b;fill-opacity:0.5;"/>
    <path clip-path="url(#p861b3a9f4a)" d="M 285.606869 295.649537 
L 294.571717 296.603956 
L 299.656253 284.960037 
L 290.692811 284.037087 
z
" style="fill:#ead4c8;fill-opacity:0.5;"/>
    <path clip-path="url(#p861b3a9f4a)" d="M 247.320926 345.615238 
L 256.185614 346.923477 
L 261.329437 332.945215 
L 252.46043 331.67328 
z
" style="fill:#8caffe;fill-opacity:0.5;"/>
    <path clip-path="url(#p861b3a9f4a)" d="M 332.807435 255.041363 
L 341.905209 255.544559 
L 346.86141 246.275628 
L 337.770994 245.798288 
z
" style="fill:#ec8165;fill-opacity:0.5;"/>
    <path clip-path="url(#p861b3a9f4a)" d="M 266.462826 319.560042 
L 275.379716 320.689823 
L 280.501702 307.868218 
L 271.583321 306.772453 
z
" style="fill:#c4d5f3;fill-opacity:0.5;"/>
    <path clip-path="url(#p861b3a9f4a)" d="M 346.86141 246.275628 
L 356.003577 246.639603 
L 360.914163 237.966547 
L 351.780899 237.626869 
z
" style="fill:#e0654f;fill-opacity:0.5;"/>
    <path clip-path="url(#p861b3a9f4a)" d="M 299.656253 284.960037 
L 308.667479 285.773095 
L 313.726069 274.709368 
L 304.717688 273.926573 
z
" style="fill:#f5c4ac;fill-opacity:0.5;"/>
    <path clip-path="url(#p861b3a9f4a)" d="M 242.174934 360.143863 
L 251.033837 361.489735 
L 256.185614 346.923477 
L 247.320926 345.615238 
z
" style="fill:#6e90f2;fill-opacity:0.5;"/>
    <path clip-path="url(#p861b3a9f4a)" d="M 280.501702 307.868218 
L 289.46645 308.855615 
L 294.571717 296.603956 
L 285.606869 295.649537 
z
" style="fill:#dbdcde;fill-opacity:0.5;"/>
    <path clip-path="url(#p861b3a9f4a)" d="M 261.329437 332.945215 
L 270.243348 334.110437 
L 275.379716 320.689823 
L 266.462826 319.560042 
z
" style="fill:#abc8fd;fill-opacity:0.5;"/>
    <path clip-path="url(#p861b3a9f4a)" d="M 313.726069 274.709368 
L 322.783553 275.381164 
L 327.810877 264.902621 
L 318.757708 264.259781 
z
" style="fill:#f7ad90;fill-opacity:0.5;"/>
    <path clip-path="url(#p861b3a9f4a)" d="M 237.024945 375.253497 
L 245.876602 376.6383 
L 251.033837 361.489735 
L 242.174934 360.143863 
z
" style="fill:#516ddb;fill-opacity:0.5;"/>
    <path clip-path="url(#p861b3a9f4a)" d="M 327.810877 264.902621 
L 336.914471 265.433365 
L 341.905209 255.544559 
L 332.807435 255.041363 
z
" style="fill:#f39475;fill-opacity:0.5;"/>
    <path clip-path="url(#p861b3a9f4a)" d="M 294.571717 296.603956 
L 303.584267 297.448848 
L 308.667479 285.773095 
L 299.656253 284.960037 
z
" style="fill:#edd2c3;fill-opacity:0.5;"/>
    <path clip-path="url(#p861b3a9f4a)" d="M 256.185614 346.923477 
L 265.09506 348.125539 
L 270.243348 334.110437 
L 261.329437 332.945215 
z
" style="fill:#90b2fe;fill-opacity:0.5;"/>
    <path clip-path="url(#p861b3a9f4a)" d="M 341.905209 255.544559 
L 351.054732 255.934574 
L 356.003577 246.639603 
L 346.86141 246.275628 
z
" style="fill:#e9785d;fill-opacity:0.5;"/>
    <path clip-path="url(#p861b3a9f4a)" d="M 275.379716 320.689823 
L 284.342859 321.711688 
L 289.46645 308.855615 
L 280.501702 307.868218 
z
" style="fill:#c7d7f0;fill-opacity:0.5;"/>
    <path clip-path="url(#p861b3a9f4a)" d="M 251.033837 361.489735 
L 259.937337 362.730009 
L 265.09506 348.125539 
L 256.185614 346.923477 
z
" style="fill:#7396f5;fill-opacity:0.5;"/>
    <path clip-path="url(#p861b3a9f4a)" d="M 308.667479 285.773095 
L 317.727745 286.475477 
L 322.783553 275.381164 
L 313.726069 274.709368 
z
" style="fill:#f6bfa6;fill-opacity:0.5;"/>
    <path clip-path="url(#p861b3a9f4a)" d="M 270.243348 334.110437 
L 279.203381 335.16824 
L 284.342859 321.711688 
L 275.379716 320.689823 
z
" style="fill:#afcafc;fill-opacity:0.5;"/>
    <path clip-path="url(#p861b3a9f4a)" d="M 289.46645 308.855615 
L 298.478802 309.733897 
L 303.584267 297.448848 
L 294.571717 296.603956 
z
" style="fill:#dedcdb;fill-opacity:0.5;"/>
    <path clip-path="url(#p861b3a9f4a)" d="M 245.876602 376.6383 
L 254.77268 377.91813 
L 259.937337 362.730009 
L 251.033837 361.489735 
z
" style="fill:#5572df;fill-opacity:0.5;"/>
    <path clip-path="url(#p861b3a9f4a)" d="M 322.783553 275.381164 
L 331.891421 275.941142 
L 336.914471 265.433365 
L 327.810877 264.902621 
z
" style="fill:#f7a889;fill-opacity:0.5;"/>
    <path clip-path="url(#p861b3a9f4a)" d="M 336.914471 265.433365 
L 346.069791 265.85116 
L 351.054732 255.934574 
L 341.905209 255.544559 
z
" style="fill:#f18d6f;fill-opacity:0.5;"/>
    <path clip-path="url(#p861b3a9f4a)" d="M 265.09506 348.125539 
L 274.050482 349.220725 
L 279.203381 335.16824 
L 270.243348 334.110437 
z
" style="fill:#94b6ff;fill-opacity:0.5;"/>
    <path clip-path="url(#p861b3a9f4a)" d="M 303.584267 297.448848 
L 312.645779 298.183434 
L 317.727745 286.475477 
L 308.667479 285.773095 
z
" style="fill:#efcebd;fill-opacity:0.5;"/>
    <path clip-path="url(#p861b3a9f4a)" d="M 284.342859 321.711688 
L 293.353492 322.624897 
L 298.478802 309.733897 
L 289.46645 308.855615 
z
" style="fill:#ccd9ed;fill-opacity:0.5;"/>
    <path clip-path="url(#p861b3a9f4a)" d="M 259.937337 362.730009 
L 268.88665 363.863995 
L 274.050482 349.220725 
L 265.09506 348.125539 
z
" style="fill:#779af7;fill-opacity:0.5;"/>
    <path clip-path="url(#p861b3a9f4a)" d="M 317.727745 286.475477 
L 326.838335 287.066367 
L 331.891421 275.941142 
L 322.783553 275.381164 
z
" style="fill:#f7b99e;fill-opacity:0.5;"/>
    <path clip-path="url(#p861b3a9f4a)" d="M 279.203381 335.16824 
L 288.210775 336.117891 
L 293.353492 322.624897 
L 284.342859 321.711688 
z
" style="fill:#b5cdfa;fill-opacity:0.5;"/>
    <path clip-path="url(#p861b3a9f4a)" d="M 298.478802 309.733897 
L 307.540021 310.502289 
L 312.645779 298.183434 
L 303.584267 297.448848 
z
" style="fill:#e2dad5;fill-opacity:0.5;"/>
    <path clip-path="url(#p861b3a9f4a)" d="M 254.77268 377.91813 
L 263.714393 379.092305 
L 268.88665 363.863995 
L 259.937337 362.730009 
z
" style="fill:#5a78e4;fill-opacity:0.5;"/>
    <path clip-path="url(#p861b3a9f4a)" d="M 331.891421 275.941142 
L 341.050974 276.388452 
L 346.069791 265.85116 
L 336.914471 265.433365 
z
" style="fill:#f5a081;fill-opacity:0.5;"/>
    <path clip-path="url(#p861b3a9f4a)" d="M 274.050482 349.220725 
L 283.053118 350.208309 
L 288.210775 336.117891 
L 279.203381 335.16824 
z
" style="fill:#9abbff;fill-opacity:0.5;"/>
    <path clip-path="url(#p861b3a9f4a)" d="M 312.645779 298.183434 
L 321.757536 298.806902 
L 326.838335 287.066367 
L 317.727745 286.475477 
z
" style="fill:#f2cab5;fill-opacity:0.5;"/>
    <path clip-path="url(#p861b3a9f4a)" d="M 293.353492 322.624897 
L 302.412878 323.42868 
L 307.540021 310.502289 
L 298.478802 309.733897 
z
" style="fill:#d1dae9;fill-opacity:0.5;"/>
    <path clip-path="url(#p861b3a9f4a)" d="M 268.88665 363.863995 
L 277.883014 364.890976 
L 283.053118 350.208309 
L 274.050482 349.220725 
z
" style="fill:#7da0f9;fill-opacity:0.5;"/>
    <path clip-path="url(#p861b3a9f4a)" d="M 326.838335 287.066367 
L 336.000552 287.544919 
L 341.050974 276.388452 
L 331.891421 275.941142 
z
" style="fill:#f7b497;fill-opacity:0.5;"/>
    <path clip-path="url(#p861b3a9f4a)" d="M 288.210775 336.117891 
L 297.26679 336.958627 
L 302.412878 323.42868 
L 293.353492 322.624897 
z
" style="fill:#bad0f8;fill-opacity:0.5;"/>
    <path clip-path="url(#p861b3a9f4a)" d="M 263.714393 379.092305 
L 272.702979 380.160114 
L 277.883014 364.890976 
L 268.88665 363.863995 
z
" style="fill:#5e7de7;fill-opacity:0.5;"/>
    <path clip-path="url(#p861b3a9f4a)" d="M 307.540021 310.502289 
L 316.65139 311.159986 
L 321.757536 298.806902 
L 312.645779 298.183434 
z
" style="fill:#e6d7cf;fill-opacity:0.5;"/>
    <path clip-path="url(#p861b3a9f4a)" d="M 283.053118 350.208309 
L 292.104229 351.087536 
L 297.26679 336.958627 
L 288.210775 336.117891 
z
" style="fill:#9fbfff;fill-opacity:0.5;"/>
    <path clip-path="url(#p861b3a9f4a)" d="M 321.757536 298.806902 
L 330.920845 299.318412 
L 336.000552 287.544919 
L 326.838335 287.066367 
z
" style="fill:#f4c6af;fill-opacity:0.5;"/>
    <path clip-path="url(#p861b3a9f4a)" d="M 302.412878 323.42868 
L 311.522302 324.122238 
L 316.65139 311.159986 
L 307.540021 310.502289 
z
" style="fill:#d5dbe5;fill-opacity:0.5;"/>
    <path clip-path="url(#p861b3a9f4a)" d="M 277.883014 364.890976 
L 286.92769 365.810203 
L 292.104229 351.087536 
L 283.053118 350.208309 
z
" style="fill:#82a6fb;fill-opacity:0.5;"/>
    <path clip-path="url(#p861b3a9f4a)" d="M 297.26679 336.958627 
L 306.372713 337.689657 
L 311.522302 324.122238 
L 302.412878 323.42868 
z
" style="fill:#bfd3f6;fill-opacity:0.5;"/>
    <path clip-path="url(#p861b3a9f4a)" d="M 272.702979 380.160114 
L 281.739696 381.120819 
L 286.92769 365.810203 
L 277.883014 364.890976 
z
" style="fill:#6384eb;fill-opacity:0.5;"/>
    <path clip-path="url(#p861b3a9f4a)" d="M 316.65139 311.159986 
L 325.814216 311.706153 
L 330.920845 299.318412 
L 321.757536 298.806902 
z
" style="fill:#ead4c8;fill-opacity:0.5;"/>
    <path clip-path="url(#p861b3a9f4a)" d="M 292.104229 351.087536 
L 301.205099 351.857622 
L 306.372713 337.689657 
L 297.26679 336.958627 
z
" style="fill:#a5c3fe;fill-opacity:0.5;"/>
    <path clip-path="url(#p861b3a9f4a)" d="M 311.522302 324.122238 
L 320.68307 324.704743 
L 325.814216 311.706153 
L 316.65139 311.159986 
z
" style="fill:#dadce0;fill-opacity:0.5;"/>
    <path clip-path="url(#p861b3a9f4a)" d="M 286.92769 365.810203 
L 296.021961 366.620901 
L 301.205099 351.857622 
L 292.104229 351.087536 
z
" style="fill:#88abfd;fill-opacity:0.5;"/>
    <path clip-path="url(#p861b3a9f4a)" d="M 281.739696 381.120819 
L 290.825827 381.973652 
L 296.021961 366.620901 
L 286.92769 365.810203 
z
" style="fill:#6a8bef;fill-opacity:0.5;"/>
    <path clip-path="url(#p861b3a9f4a)" d="M 306.372713 337.689657 
L 315.529852 338.310158 
L 320.68307 324.704743 
L 311.522302 324.122238 
z
" style="fill:#c5d6f2;fill-opacity:0.5;"/>
    <path clip-path="url(#p861b3a9f4a)" d="M 301.205099 351.857622 
L 310.357038 352.517752 
L 315.529852 338.310158 
L 306.372713 337.689657 
z
" style="fill:#abc8fd;fill-opacity:0.5;"/>
    <path clip-path="url(#p861b3a9f4a)" d="M 296.021961 366.620901 
L 305.167135 367.322263 
L 310.357038 352.517752 
L 301.205099 351.857622 
z
" style="fill:#8fb1fe;fill-opacity:0.5;"/>
    <path clip-path="url(#p861b3a9f4a)" d="M 290.825827 381.973652 
L 299.962676 382.717818 
L 305.167135 367.322263 
L 296.021961 366.620901 
z
" style="fill:#6f92f3;fill-opacity:0.5;"/>
   </g>
  </g>
 </g>
 <defs>
  <clipPath id="p861b3a9f4a">
   <rect height="380.52" width="390.6" x="63" y="60.48"/>
  </clipPath>
 </defs>
</svg>
